<svg width="39" height="65" viewBox="0 0 39 65" fill="none" xmlns="http://www.w3.org/2000/svg">
<path d="M15.362 49.52C15.4153 49.52 15.462 49.5417 15.502 49.585L15.887 50C15.5937 50.34 15.237 50.605 14.817 50.795C14.4003 50.985 13.8953 51.08 13.302 51.08C12.7887 51.08 12.322 50.9917 11.902 50.815C11.482 50.635 11.1237 50.385 10.827 50.065C10.5303 49.7417 10.3003 49.355 10.137 48.905C9.97366 48.455 9.89199 47.96 9.89199 47.42C9.89199 46.88 9.97699 46.385 10.147 45.935C10.317 45.485 10.5553 45.0983 10.862 44.775C11.172 44.4517 11.542 44.2017 11.972 44.025C12.402 43.845 12.877 43.755 13.397 43.755C13.907 43.755 14.357 43.8367 14.747 44C15.137 44.1633 15.4803 44.385 15.777 44.665L15.457 45.11C15.437 45.1433 15.4103 45.1717 15.377 45.195C15.347 45.215 15.3053 45.225 15.252 45.225C15.192 45.225 15.1187 45.1933 15.032 45.13C14.9453 45.0633 14.832 44.99 14.692 44.91C14.552 44.83 14.377 44.7583 14.167 44.695C13.957 44.6283 13.6987 44.595 13.392 44.595C13.022 44.595 12.6837 44.66 12.377 44.79C12.0703 44.9167 11.8053 45.1017 11.582 45.345C11.362 45.5883 11.1903 45.885 11.067 46.235C10.9437 46.585 10.882 46.98 10.882 47.42C10.882 47.8667 10.9453 48.265 11.072 48.615C11.202 48.965 11.377 49.2617 11.597 49.505C11.8203 49.745 12.082 49.9283 12.382 50.055C12.6853 50.1817 13.012 50.245 13.362 50.245C13.5753 50.245 13.767 50.2333 13.937 50.21C14.1103 50.1833 14.2687 50.1433 14.412 50.09C14.5587 50.0367 14.6937 49.97 14.817 49.89C14.9437 49.8067 15.0687 49.7083 15.192 49.595C15.2487 49.545 15.3053 49.52 15.362 49.52ZM18.839 45.855C19.209 45.855 19.5424 45.9167 19.839 46.04C20.1357 46.1633 20.389 46.3383 20.599 46.565C20.809 46.7917 20.969 47.0667 21.079 47.39C21.1924 47.71 21.249 48.0683 21.249 48.465C21.249 48.865 21.1924 49.225 21.079 49.545C20.969 49.865 20.809 50.1383 20.599 50.365C20.389 50.5917 20.1357 50.7667 19.839 50.89C19.5424 51.01 19.209 51.07 18.839 51.07C18.4657 51.07 18.129 51.01 17.829 50.89C17.5324 50.7667 17.279 50.5917 17.069 50.365C16.859 50.1383 16.6974 49.865 16.584 49.545C16.474 49.225 16.419 48.865 16.419 48.465C16.419 48.0683 16.474 47.71 16.584 47.39C16.6974 47.0667 16.859 46.7917 17.069 46.565C17.279 46.3383 17.5324 46.1633 17.829 46.04C18.129 45.9167 18.4657 45.855 18.839 45.855ZM18.839 50.375C19.339 50.375 19.7124 50.2083 19.959 49.875C20.2057 49.5383 20.329 49.07 20.329 48.47C20.329 47.8667 20.2057 47.3967 19.959 47.06C19.7124 46.7233 19.339 46.555 18.839 46.555C18.5857 46.555 18.364 46.5983 18.174 46.685C17.9874 46.7717 17.8307 46.8967 17.704 47.06C17.5807 47.2233 17.4874 47.425 17.424 47.665C17.364 47.9017 17.334 48.17 17.334 48.47C17.334 49.07 17.4574 49.5383 17.704 49.875C17.954 50.2083 18.3324 50.375 18.839 50.375ZM25.3279 46.77C25.2879 46.8433 25.2262 46.88 25.1429 46.88C25.0929 46.88 25.0362 46.8617 24.9729 46.825C24.9095 46.7883 24.8312 46.7483 24.7379 46.705C24.6479 46.6583 24.5395 46.6167 24.4129 46.58C24.2862 46.54 24.1362 46.52 23.9629 46.52C23.8129 46.52 23.6779 46.54 23.5579 46.58C23.4379 46.6167 23.3345 46.6683 23.2479 46.735C23.1645 46.8017 23.0995 46.88 23.0529 46.97C23.0095 47.0567 22.9879 47.1517 22.9879 47.255C22.9879 47.385 23.0245 47.4933 23.0979 47.58C23.1745 47.6667 23.2745 47.7417 23.3979 47.805C23.5212 47.8683 23.6612 47.925 23.8179 47.975C23.9745 48.0217 24.1345 48.0733 24.2979 48.13C24.4645 48.1833 24.6262 48.2433 24.7829 48.31C24.9395 48.3767 25.0795 48.46 25.2029 48.56C25.3262 48.66 25.4245 48.7833 25.4979 48.93C25.5745 49.0733 25.6129 49.2467 25.6129 49.45C25.6129 49.6833 25.5712 49.9 25.4879 50.1C25.4045 50.2967 25.2812 50.4683 25.1179 50.615C24.9545 50.7583 24.7545 50.8717 24.5179 50.955C24.2812 51.0383 24.0079 51.08 23.6979 51.08C23.3445 51.08 23.0245 51.0233 22.7379 50.91C22.4512 50.7933 22.2079 50.645 22.0079 50.465L22.2179 50.125C22.2445 50.0817 22.2762 50.0483 22.3129 50.025C22.3495 50.0017 22.3962 49.99 22.4529 49.99C22.5129 49.99 22.5762 50.0133 22.6429 50.06C22.7095 50.1067 22.7895 50.1583 22.8829 50.215C22.9795 50.2717 23.0962 50.3233 23.2329 50.37C23.3695 50.4167 23.5395 50.44 23.7429 50.44C23.9162 50.44 24.0679 50.4183 24.1979 50.375C24.3279 50.3283 24.4362 50.2667 24.5229 50.19C24.6095 50.1133 24.6729 50.025 24.7129 49.925C24.7562 49.825 24.7779 49.7183 24.7779 49.605C24.7779 49.465 24.7395 49.35 24.6629 49.26C24.5895 49.1667 24.4912 49.0883 24.3679 49.025C24.2445 48.9583 24.1029 48.9017 23.9429 48.855C23.7862 48.805 23.6245 48.7533 23.4579 48.7C23.2945 48.6467 23.1329 48.5867 22.9729 48.52C22.8162 48.45 22.6762 48.3633 22.5529 48.26C22.4295 48.1567 22.3295 48.03 22.2529 47.88C22.1795 47.7267 22.1429 47.5417 22.1429 47.325C22.1429 47.1317 22.1829 46.9467 22.2629 46.77C22.3429 46.59 22.4595 46.4333 22.6129 46.3C22.7662 46.1633 22.9545 46.055 23.1779 45.975C23.4012 45.895 23.6562 45.855 23.9429 45.855C24.2762 45.855 24.5745 45.9083 24.8379 46.015C25.1045 46.1183 25.3345 46.2617 25.5279 46.445L25.3279 46.77ZM28.259 51.08C27.859 51.08 27.5507 50.9683 27.334 50.745C27.1207 50.5217 27.014 50.2 27.014 49.78V46.68H26.404C26.3507 46.68 26.3057 46.665 26.269 46.635C26.2324 46.6017 26.214 46.5517 26.214 46.485V46.13L27.044 46.025L27.249 44.46C27.259 44.41 27.2807 44.37 27.314 44.34C27.3507 44.3067 27.3974 44.29 27.454 44.29H27.904V46.035H29.369V46.68H27.904V49.72C27.904 49.9333 27.9557 50.0917 28.059 50.195C28.1624 50.2983 28.2957 50.35 28.459 50.35C28.5524 50.35 28.6324 50.3383 28.699 50.315C28.769 50.2883 28.829 50.26 28.879 50.23C28.929 50.2 28.9707 50.1733 29.004 50.15C29.0407 50.1233 29.0724 50.11 29.099 50.11C29.1457 50.11 29.1874 50.1383 29.224 50.195L29.484 50.62C29.3307 50.7633 29.1457 50.8767 28.929 50.96C28.7124 51.04 28.489 51.08 28.259 51.08ZM15.4502 62.21L15.4452 63H11.0302V55.835H15.4452V56.625H12.0002V59.005H14.7902V59.765H12.0002V62.21H15.4502ZM17.295 58.67C17.405 58.5467 17.5217 58.435 17.645 58.335C17.7683 58.235 17.8983 58.15 18.035 58.08C18.175 58.0067 18.3217 57.9517 18.475 57.915C18.6317 57.875 18.8 57.855 18.98 57.855C19.2567 57.855 19.5 57.9017 19.71 57.995C19.9233 58.085 20.1 58.215 20.24 58.385C20.3833 58.5517 20.4917 58.7533 20.565 58.99C20.6383 59.2267 20.675 59.4883 20.675 59.775V63H19.78V59.775C19.78 59.3917 19.6917 59.095 19.515 58.885C19.3417 58.6717 19.0767 58.565 18.72 58.565C18.4567 58.565 18.21 58.6283 17.98 58.755C17.7533 58.8817 17.5433 59.0533 17.35 59.27V63H16.455V57.935H16.99C17.1167 57.935 17.195 57.9967 17.225 58.12L17.295 58.67ZM23.7962 60.525C23.9762 60.525 24.1345 60.5 24.2712 60.45C24.4078 60.4 24.5228 60.33 24.6162 60.24C24.7095 60.15 24.7795 60.0433 24.8262 59.92C24.8728 59.7933 24.8962 59.655 24.8962 59.505C24.8962 59.195 24.8012 58.9483 24.6112 58.765C24.4245 58.5817 24.1528 58.49 23.7962 58.49C23.4362 58.49 23.1612 58.5817 22.9712 58.765C22.7845 58.9483 22.6912 59.195 22.6912 59.505C22.6912 59.655 22.7145 59.7933 22.7612 59.92C22.8112 60.0433 22.8828 60.15 22.9762 60.24C23.0695 60.33 23.1845 60.4 23.3212 60.45C23.4578 60.5 23.6162 60.525 23.7962 60.525ZM25.4012 63.275C25.4012 63.1517 25.3662 63.0517 25.2962 62.975C25.2262 62.8983 25.1312 62.8383 25.0112 62.795C24.8945 62.7517 24.7578 62.7217 24.6012 62.705C24.4445 62.685 24.2778 62.67 24.1012 62.66C23.9278 62.65 23.7512 62.64 23.5712 62.63C23.3912 62.62 23.2178 62.6033 23.0512 62.58C22.8645 62.6667 22.7112 62.7767 22.5912 62.91C22.4745 63.04 22.4162 63.1933 22.4162 63.37C22.4162 63.4833 22.4445 63.5883 22.5012 63.685C22.5612 63.785 22.6512 63.87 22.7712 63.94C22.8912 64.0133 23.0412 64.07 23.2212 64.11C23.4045 64.1533 23.6195 64.175 23.8662 64.175C24.1062 64.175 24.3212 64.1533 24.5112 64.11C24.7012 64.0667 24.8612 64.005 24.9912 63.925C25.1245 63.845 25.2262 63.75 25.2962 63.64C25.3662 63.53 25.4012 63.4083 25.4012 63.275ZM26.3062 58.135V58.465C26.3062 58.575 26.2362 58.645 26.0962 58.675L25.5212 58.75C25.6345 58.97 25.6912 59.2133 25.6912 59.48C25.6912 59.7267 25.6428 59.9517 25.5462 60.155C25.4528 60.355 25.3228 60.5267 25.1562 60.67C24.9895 60.8133 24.7895 60.9233 24.5562 61C24.3228 61.0767 24.0695 61.115 23.7962 61.115C23.5595 61.115 23.3362 61.0867 23.1262 61.03C23.0195 61.0967 22.9378 61.1683 22.8812 61.245C22.8245 61.3183 22.7962 61.3933 22.7962 61.47C22.7962 61.59 22.8445 61.6817 22.9412 61.745C23.0412 61.805 23.1712 61.8483 23.3312 61.875C23.4912 61.9017 23.6728 61.9183 23.8762 61.925C24.0828 61.9317 24.2928 61.9433 24.5062 61.96C24.7228 61.9733 24.9328 61.9983 25.1362 62.035C25.3428 62.0717 25.5262 62.1317 25.6862 62.215C25.8462 62.2983 25.9745 62.4133 26.0712 62.56C26.1712 62.7067 26.2212 62.8967 26.2212 63.13C26.2212 63.3467 26.1662 63.5567 26.0562 63.76C25.9495 63.9633 25.7945 64.1433 25.5912 64.3C25.3878 64.46 25.1378 64.5867 24.8412 64.68C24.5478 64.7767 24.2162 64.825 23.8462 64.825C23.4762 64.825 23.1528 64.7883 22.8762 64.715C22.5995 64.6417 22.3695 64.5433 22.1862 64.42C22.0028 64.2967 21.8645 64.1533 21.7712 63.99C21.6812 63.83 21.6362 63.6617 21.6362 63.485C21.6362 63.235 21.7145 63.0233 21.8712 62.85C22.0278 62.6767 22.2428 62.5383 22.5162 62.435C22.3662 62.3683 22.2462 62.28 22.1562 62.17C22.0695 62.0567 22.0262 61.905 22.0262 61.715C22.0262 61.6417 22.0395 61.5667 22.0662 61.49C22.0928 61.41 22.1328 61.3317 22.1862 61.255C22.2428 61.175 22.3112 61.1 22.3912 61.03C22.4712 60.96 22.5645 60.8983 22.6712 60.845C22.4212 60.705 22.2262 60.52 22.0862 60.29C21.9462 60.0567 21.8762 59.7867 21.8762 59.48C21.8762 59.2333 21.9228 59.01 22.0162 58.81C22.1128 58.6067 22.2462 58.435 22.4162 58.295C22.5862 58.1517 22.7878 58.0417 23.0212 57.965C23.2578 57.8883 23.5162 57.85 23.7962 57.85C24.0162 57.85 24.2212 57.875 24.4112 57.925C24.6012 57.9717 24.7745 58.0417 24.9312 58.135H26.3062ZM27.0765 62.45C27.0765 62.3633 27.0915 62.2817 27.1215 62.205C27.1548 62.1283 27.1982 62.0617 27.2515 62.005C27.3082 61.9483 27.3748 61.9033 27.4515 61.87C27.5282 61.8367 27.6098 61.82 27.6965 61.82C27.7832 61.82 27.8648 61.8367 27.9415 61.87C28.0182 61.9033 28.0848 61.9483 28.1415 62.005C28.1982 62.0617 28.2432 62.1283 28.2765 62.205C28.3098 62.2817 28.3265 62.3633 28.3265 62.45C28.3265 62.54 28.3098 62.6233 28.2765 62.7C28.2432 62.7733 28.1982 62.8383 28.1415 62.895C28.0848 62.9517 28.0182 62.995 27.9415 63.025C27.8648 63.0583 27.7832 63.075 27.6965 63.075C27.6098 63.075 27.5282 63.0583 27.4515 63.025C27.3748 62.995 27.3082 62.9517 27.2515 62.895C27.1982 62.8383 27.1548 62.7733 27.1215 62.7C27.0915 62.6233 27.0765 62.54 27.0765 62.45Z" fill="#58AEB6"/>
<path d="M26.8263 24.1642L27.6973 23.2932C27.9098 23.0807 28.0268 22.7982 28.0268 22.4977C28.0268 22.1971 27.9098 21.9146 27.6974 21.7021L26.8883 20.8931C27.1671 20.407 27.381 19.8909 27.5275 19.3511H28.6712C29.2915 19.3511 29.7962 18.8464 29.7962 18.226V16.9942C29.7962 16.3738 29.2915 15.8691 28.6712 15.8691H27.5275C27.3809 15.3292 27.1671 14.8132 26.8883 14.3271L27.6973 13.5181C27.9098 13.3056 28.0268 13.023 28.0268 12.7225C28.0268 12.422 27.9098 12.1395 27.6973 11.927L26.8263 11.0559C26.3877 10.6174 25.6739 10.6172 25.2352 11.0559L24.4262 11.8649C23.9401 11.5862 23.4241 11.3723 22.8842 11.2258V10.0821C22.8842 9.46179 22.3794 8.95703 21.7591 8.95703H20.5273C19.907 8.95703 19.4022 9.46172 19.4022 10.0821V11.2258C18.8623 11.3724 18.3462 11.5862 17.8603 11.8649L17.0513 11.056C16.8389 10.8434 16.5563 10.7264 16.2557 10.7264C15.9552 10.7264 15.6727 10.8434 15.4601 11.0559L14.5892 11.9269C14.3767 12.1394 14.2597 12.4219 14.2597 12.7224C14.2597 13.023 14.3767 13.3055 14.5891 13.518L15.3981 14.327C15.1194 14.813 14.9055 15.329 14.759 15.869H13.6153C12.995 15.869 12.4902 16.3737 12.4902 16.9941V18.2259C12.4902 18.8463 12.995 19.351 13.6153 19.351H14.759C14.9056 19.8909 15.1194 20.407 15.3981 20.893L14.5892 21.702C14.3767 21.9145 14.2597 22.1971 14.2597 22.4976C14.2597 22.7981 14.3767 23.0806 14.5891 23.2931L15.4601 24.1642C15.6726 24.3766 15.9552 24.4937 16.2557 24.4937C16.5563 24.4937 16.8388 24.3766 17.0513 24.1642L17.8603 23.3552C18.3463 23.6339 18.8623 23.8478 19.4022 23.9943V25.138C19.4022 25.7583 19.907 26.2631 20.5273 26.2631H21.7591C22.3794 26.2631 22.8842 25.7584 22.8842 25.138V23.9943C23.4241 23.8477 23.9402 23.6339 24.4262 23.3552L25.2352 24.1642C25.6739 24.6028 26.3877 24.6029 26.8263 24.1642ZM24.1985 22.1871C23.5953 22.5907 22.9293 22.8667 22.2193 23.0074C21.9587 23.059 21.7709 23.2877 21.7709 23.5534V25.1381C21.7709 25.1445 21.7656 25.1499 21.7591 25.1499H20.5273C20.5208 25.1499 20.5155 25.1446 20.5155 25.1381V23.5534C20.5155 23.2877 20.3277 23.059 20.0671 23.0074C19.3571 22.8667 18.6911 22.5906 18.0879 22.1871C17.9936 22.124 17.8857 22.0932 17.7785 22.0932C17.6349 22.0932 17.4924 22.1486 17.3848 22.2562L16.2639 23.3771C16.26 23.3809 16.2512 23.3809 16.2473 23.377L15.3762 22.506C15.3723 22.502 15.3723 22.4933 15.3763 22.4893L16.4971 21.3685C16.6849 21.1806 16.7138 20.8862 16.5661 20.6653C16.1626 20.0622 15.8866 19.3963 15.7458 18.6861C15.6943 18.4255 15.4656 18.2377 15.1999 18.2377H13.6152C13.6087 18.2377 13.6034 18.2324 13.6034 18.2259V16.9941C13.6034 16.9876 13.6087 16.9823 13.6152 16.9823H15.1999C15.4656 16.9823 15.6943 16.7945 15.7458 16.5339C15.8866 15.8238 16.1626 15.1579 16.5661 14.5547C16.7138 14.3338 16.685 14.0395 16.4971 13.8515L15.3762 12.7307C15.3723 12.7268 15.3723 12.718 15.3763 12.7141L16.2473 11.843C16.2512 11.8392 16.26 11.8391 16.2639 11.843L17.3848 12.9638C17.5726 13.1517 17.8672 13.1805 18.0879 13.0329C18.6911 12.6293 19.3571 12.3534 20.0671 12.2126C20.3277 12.161 20.5155 11.9323 20.5155 11.6666V10.082C20.5155 10.0756 20.5208 10.0702 20.5273 10.0702H21.7591C21.7656 10.0702 21.7709 10.0755 21.7709 10.082V11.6667C21.7709 11.9324 21.9587 12.1611 22.2193 12.2127C22.9293 12.3534 23.5953 12.6294 24.1985 13.033C24.4194 13.1806 24.7138 13.1519 24.9016 12.9639L26.0225 11.8431C26.0271 11.8384 26.0346 11.8386 26.0392 11.8431L26.9103 12.7141C26.9142 12.7181 26.9142 12.7268 26.9102 12.7308L25.7893 13.8516C25.6015 14.0395 25.5726 14.3339 25.7203 14.5548C26.1239 15.1581 26.3999 15.824 26.5405 16.5339C26.5922 16.7945 26.8208 16.9823 27.0865 16.9823H28.6713C28.6777 16.9823 28.683 16.9876 28.683 16.9941V18.2259C28.683 18.2324 28.6777 18.2377 28.6713 18.2377H27.0865C26.8208 18.2377 26.5922 18.4256 26.5405 18.6861C26.3999 19.396 26.124 20.0619 25.7203 20.6653C25.5726 20.8861 25.6014 21.1805 25.7893 21.3684L26.9103 22.4893C26.9142 22.4932 26.9142 22.502 26.9103 22.5059L26.0392 23.3769C26.0346 23.3815 26.027 23.3814 26.0225 23.3769L24.9016 22.2561C24.7138 22.0683 24.4191 22.0394 24.1985 22.1871Z" fill="#58AEB6"/>
<path d="M21.1435 15.6807C21.832 15.6807 22.4734 16.052 22.8173 16.6497C22.9706 16.9161 23.3109 17.0078 23.5774 16.8545C23.8439 16.7012 23.9356 16.3609 23.7823 16.0944C23.2403 15.1525 22.2291 14.5674 21.1435 14.5674C19.4657 14.5674 18.1007 15.9323 18.1007 17.6101C18.1007 19.2879 19.4657 20.6529 21.1435 20.6529C22.2164 20.6529 23.1894 20.1047 23.7464 19.1865C23.9058 18.9236 23.8221 18.5813 23.5592 18.4219C23.2963 18.2624 22.9539 18.3462 22.7946 18.6091C22.4411 19.1918 21.8239 19.5397 21.1435 19.5397C20.0795 19.5397 19.214 18.6741 19.214 17.6102C19.214 16.5463 20.0795 15.6807 21.1435 15.6807Z" fill="#58AEB6"/>
<path d="M25.7766 4.58543C29.5846 5.94437 32.6007 8.88923 34.0516 12.6649C34.2076 13.0708 34.6052 13.3435 35.0411 13.3435H36.3187C36.6622 13.3435 36.9859 13.1762 37.1847 12.896C37.3836 12.6157 37.4344 12.2549 37.3209 11.9307C36.4702 9.50131 35.1041 7.33509 33.2605 5.49223C31.323 3.55475 29.0368 2.14823 26.4655 1.31171C26.1425 1.20662 25.786 1.26303 25.5114 1.46238C25.2374 1.66136 25.0739 1.98236 25.0739 2.32094V3.58711C25.0739 4.03413 25.3562 4.43543 25.7766 4.58543ZM26.1871 2.39189C28.5632 3.17609 30.6777 4.48375 32.4732 6.27932C32.4733 6.27932 32.4733 6.2794 32.4734 6.2794C34.1804 7.98576 35.4496 9.98766 36.2461 12.2301H35.0772C33.5091 8.17984 30.2723 5.01953 26.1871 3.54993V2.39189Z" fill="#58AEB6"/>
<path d="M36.5373 21.2041H35.2812C34.8226 21.2041 34.4178 21.4969 34.274 21.9326C32.9459 25.9557 29.7698 29.2083 25.7779 30.6332C25.3568 30.7836 25.0739 31.185 25.0739 31.6321V32.8982C25.0882 33.5289 25.7014 34.1467 26.4655 33.9075C29.0369 33.0709 31.323 31.6644 33.2606 29.7269C35.2637 27.7238 36.7485 25.2495 37.5541 22.5717C37.6518 22.247 37.5918 21.9047 37.3894 21.6324C37.1869 21.3602 36.8764 21.2041 36.5373 21.2041ZM32.4732 28.9398C30.6777 30.7353 28.5631 32.0429 26.1871 32.8272V31.6692C30.4717 30.1276 33.8814 26.6359 35.3193 22.3174H36.4679C35.7105 24.7941 34.3303 27.0827 32.4732 28.9398Z" fill="#58AEB6"/>
<path d="M16.5086 30.6332C13.1609 29.4382 10.4275 27.03 8.81207 23.852C8.5722 23.3801 8.01615 23.1545 7.51814 23.3275C7.18965 23.4416 6.84899 23.5274 6.50558 23.5827C6.17003 23.6366 5.88771 23.8404 5.73088 24.1417C5.5748 24.4417 5.56998 24.7881 5.71745 25.0918C6.54788 26.8025 7.66109 28.362 9.02597 29.7269C10.9635 31.6644 13.2496 33.0709 15.821 33.9075C16.3785 34.1205 17.2286 33.6582 17.2127 32.8982V31.6321C17.2129 31.1848 16.9298 30.7834 16.5086 30.6332ZM16.0996 32.8271C13.7236 32.0429 11.6089 30.7353 9.81343 28.9397C8.55364 27.6799 7.52349 26.2439 6.7508 24.6704C7.11959 24.6073 7.48512 24.5146 7.83907 24.3944C9.58076 27.7975 12.5119 30.3787 16.0996 31.6692V32.8271Z" fill="#58AEB6"/>
<path d="M20.2729 4.70435H22.2012C22.9665 4.70435 23.5892 4.08173 23.5892 3.31639V1.38796C23.5892 0.622621 22.9665 0 22.2012 0H20.2729C19.5075 0 18.8849 0.622621 18.8849 1.38796V3.31632C18.8849 4.08173 19.5076 4.70435 20.2729 4.70435ZM19.9982 1.38796C19.9982 1.23648 20.1214 1.11328 20.2729 1.11328H22.2012C22.3527 1.11328 22.4759 1.23648 22.4759 1.38796V3.31632C22.4759 3.4678 22.3527 3.591 22.2012 3.591H20.2729C20.1214 3.591 19.9982 3.4678 19.9982 3.31632V1.38796Z" fill="#58AEB6"/>
<path d="M22.2012 30.5146H20.2729C19.5075 30.5146 18.8849 31.1373 18.8849 31.9026V33.831C18.8849 34.5963 19.5076 35.2189 20.2729 35.2189H22.2012C22.9665 35.2189 23.5892 34.5963 23.5892 33.831V31.9026C23.5892 31.1373 22.9665 30.5146 22.2012 30.5146ZM22.4759 33.831C22.4759 33.9825 22.3527 34.1057 22.2012 34.1057H20.2729C20.1214 34.1057 19.9982 33.9825 19.9982 33.831V31.9027C19.9982 31.7512 20.1214 31.628 20.2729 31.628H22.2012C22.3527 31.628 22.4759 31.7512 22.4759 31.9027V33.831Z" fill="#58AEB6"/>
<path d="M37.112 14.7979H35.1836C34.4183 14.7979 33.7957 15.4205 33.7957 16.1859V18.1142C33.7957 18.8796 34.4183 19.5023 35.1836 19.5023H37.112C37.8773 19.5023 38.4999 18.8796 38.4999 18.1142V16.1859C38.4999 15.4205 37.8772 14.7979 37.112 14.7979ZM37.3867 18.1142C37.3867 18.2656 37.2635 18.3889 37.112 18.3889H35.1836C35.0321 18.3889 34.9089 18.2656 34.9089 18.1142V16.1858C34.9089 16.0343 35.0321 15.9111 35.1836 15.9111H37.112C37.2635 15.9111 37.3867 16.0343 37.3867 16.1858V18.1142Z" fill="#58AEB6"/>
<path d="M3.7079 17.2717C3.49044 17.4891 3.49044 17.8414 3.70783 18.0588L4.62881 18.9799C4.73324 19.0843 4.87477 19.1429 5.02247 19.1429C5.17016 19.1429 5.31162 19.0843 5.41612 18.9799L7.36964 17.0264C7.58702 16.809 7.58702 16.4565 7.36964 16.2392C7.15217 16.0218 6.79978 16.0218 6.5824 16.2392L5.02247 17.7991L4.49514 17.2717C4.27768 17.0543 3.92522 17.0542 3.7079 17.2717Z" fill="#58AEB6"/>
<path d="M10.5773 17.6102C10.5773 15.3805 9.0831 13.3902 6.9436 12.7702C6.64858 12.6847 6.33953 12.8546 6.25403 13.1499C6.16846 13.4452 6.33842 13.7539 6.63366 13.8395C8.30017 14.3225 9.46407 15.8731 9.46407 17.6103C9.46407 19.7748 7.70308 21.5357 5.53864 21.5357C3.3742 21.5357 1.61328 19.7747 1.61328 17.6102C1.61328 15.8815 2.72107 14.3751 4.36991 13.8616C4.66337 13.7702 4.82725 13.4581 4.73589 13.1646C4.64445 12.8711 4.3328 12.7069 4.03882 12.7986C1.92211 13.4578 0.5 15.3914 0.5 17.6102C0.5 20.3886 2.76033 22.6489 5.53871 22.6489C8.31709 22.6489 10.5773 20.3886 10.5773 17.6102Z" fill="#58AEB6"/>
<path d="M11.3582 2.90889H15.5923L14.8133 3.68789C14.5959 3.90528 14.5959 4.25774 14.8133 4.47506C14.922 4.58371 15.0645 4.63811 15.2069 4.63811C15.3493 4.63811 15.4918 4.58379 15.6006 4.47506L17.3298 2.74583C17.5199 2.56103 17.5689 2.1929 17.3298 1.95867L15.6006 0.229446C15.3831 0.0120596 15.0307 0.0120596 14.8133 0.229446C14.5959 0.446833 14.5959 0.799298 14.8133 1.01661L15.5923 1.79561H11.3582C11.0507 1.79561 10.8015 2.04484 10.8015 2.35225C10.8015 2.65967 11.0507 2.90889 11.3582 2.90889Z" fill="#58AEB6"/>
</svg>
