<svg width="39" height="53" viewBox="0 0 39 53" fill="none" xmlns="http://www.w3.org/2000/svg">
<path d="M17.2681 50.185V51H13.2031V43.835H14.1681V50.185H17.2681ZM25.7948 43.835V51H24.9448V45.735C24.9448 45.665 24.9465 45.59 24.9498 45.51C24.9565 45.43 24.9631 45.3483 24.9698 45.265L22.5098 49.745C22.4331 49.895 22.3165 49.97 22.1598 49.97H22.0198C21.8631 49.97 21.7465 49.895 21.6698 49.745L19.1598 45.245C19.1798 45.4217 19.1898 45.585 19.1898 45.735V51H18.3398V43.835H19.0548C19.1415 43.835 19.2081 43.8433 19.2548 43.86C19.3015 43.8767 19.3465 43.9233 19.3898 44L21.8648 48.41C21.9048 48.49 21.9431 48.5733 21.9798 48.66C22.0198 48.7467 22.0565 48.835 22.0898 48.925C22.1231 48.835 22.1581 48.7467 22.1948 48.66C22.2315 48.57 22.2715 48.485 22.3148 48.405L24.7448 44C24.7848 43.9233 24.8281 43.8767 24.8748 43.86C24.9248 43.8433 24.9931 43.835 25.0798 43.835H25.7948Z" fill="#58AEB6"/>
<path d="M26.8263 24.1642L27.6973 23.2932C27.9098 23.0807 28.0268 22.7982 28.0268 22.4977C28.0268 22.1971 27.9098 21.9146 27.6974 21.7021L26.8883 20.8931C27.1671 20.407 27.381 19.8909 27.5275 19.3511H28.6712C29.2915 19.3511 29.7962 18.8464 29.7962 18.226V16.9942C29.7962 16.3738 29.2915 15.8691 28.6712 15.8691H27.5275C27.3809 15.3292 27.1671 14.8132 26.8883 14.3271L27.6973 13.5181C27.9098 13.3056 28.0268 13.023 28.0268 12.7225C28.0268 12.422 27.9098 12.1395 27.6973 11.927L26.8263 11.0559C26.3877 10.6174 25.6739 10.6172 25.2352 11.0559L24.4262 11.8649C23.9401 11.5862 23.4241 11.3723 22.8842 11.2258V10.0821C22.8842 9.46179 22.3794 8.95703 21.7591 8.95703H20.5273C19.907 8.95703 19.4022 9.46172 19.4022 10.0821V11.2258C18.8623 11.3724 18.3462 11.5862 17.8603 11.8649L17.0513 11.056C16.8389 10.8434 16.5563 10.7264 16.2557 10.7264C15.9552 10.7264 15.6727 10.8434 15.4601 11.0559L14.5892 11.9269C14.3767 12.1394 14.2597 12.4219 14.2597 12.7224C14.2597 13.023 14.3767 13.3055 14.5891 13.518L15.3981 14.327C15.1194 14.813 14.9055 15.329 14.759 15.869H13.6153C12.995 15.869 12.4902 16.3737 12.4902 16.9941V18.2259C12.4902 18.8463 12.995 19.351 13.6153 19.351H14.759C14.9056 19.8909 15.1194 20.407 15.3981 20.893L14.5892 21.702C14.3767 21.9145 14.2597 22.1971 14.2597 22.4976C14.2597 22.7981 14.3767 23.0806 14.5891 23.2931L15.4601 24.1642C15.6726 24.3766 15.9552 24.4937 16.2557 24.4937C16.5563 24.4937 16.8388 24.3766 17.0513 24.1642L17.8603 23.3552C18.3463 23.6339 18.8623 23.8478 19.4022 23.9943V25.138C19.4022 25.7583 19.907 26.2631 20.5273 26.2631H21.7591C22.3794 26.2631 22.8842 25.7584 22.8842 25.138V23.9943C23.4241 23.8477 23.9402 23.6339 24.4262 23.3552L25.2352 24.1642C25.6739 24.6028 26.3877 24.6029 26.8263 24.1642ZM24.1985 22.1871C23.5953 22.5907 22.9293 22.8667 22.2193 23.0074C21.9587 23.059 21.7709 23.2877 21.7709 23.5534V25.1381C21.7709 25.1445 21.7656 25.1499 21.7591 25.1499H20.5273C20.5208 25.1499 20.5155 25.1446 20.5155 25.1381V23.5534C20.5155 23.2877 20.3277 23.059 20.0671 23.0074C19.3571 22.8667 18.6911 22.5906 18.0879 22.1871C17.9936 22.124 17.8857 22.0932 17.7785 22.0932C17.6349 22.0932 17.4924 22.1486 17.3848 22.2562L16.2639 23.3771C16.26 23.3809 16.2512 23.3809 16.2473 23.377L15.3762 22.506C15.3723 22.502 15.3723 22.4933 15.3763 22.4893L16.4971 21.3685C16.6849 21.1806 16.7138 20.8862 16.5661 20.6653C16.1626 20.0622 15.8866 19.3963 15.7458 18.6861C15.6943 18.4255 15.4656 18.2377 15.1999 18.2377H13.6152C13.6087 18.2377 13.6034 18.2324 13.6034 18.2259V16.9941C13.6034 16.9876 13.6087 16.9823 13.6152 16.9823H15.1999C15.4656 16.9823 15.6943 16.7945 15.7458 16.5339C15.8866 15.8238 16.1626 15.1579 16.5661 14.5547C16.7138 14.3338 16.685 14.0395 16.4971 13.8515L15.3762 12.7307C15.3723 12.7268 15.3723 12.718 15.3763 12.7141L16.2473 11.843C16.2512 11.8392 16.26 11.8391 16.2639 11.843L17.3848 12.9638C17.5726 13.1517 17.8672 13.1805 18.0879 13.0329C18.6911 12.6293 19.3571 12.3534 20.0671 12.2126C20.3277 12.161 20.5155 11.9323 20.5155 11.6666V10.082C20.5155 10.0756 20.5208 10.0702 20.5273 10.0702H21.7591C21.7656 10.0702 21.7709 10.0755 21.7709 10.082V11.6667C21.7709 11.9324 21.9587 12.1611 22.2193 12.2127C22.9293 12.3534 23.5953 12.6294 24.1985 13.033C24.4194 13.1806 24.7138 13.1519 24.9016 12.9639L26.0225 11.8431C26.0271 11.8384 26.0346 11.8386 26.0392 11.8431L26.9103 12.7141C26.9142 12.7181 26.9142 12.7268 26.9102 12.7308L25.7893 13.8516C25.6015 14.0395 25.5726 14.3339 25.7203 14.5548C26.1239 15.1581 26.3999 15.824 26.5405 16.5339C26.5922 16.7945 26.8208 16.9823 27.0865 16.9823H28.6713C28.6777 16.9823 28.683 16.9876 28.683 16.9941V18.2259C28.683 18.2324 28.6777 18.2377 28.6713 18.2377H27.0865C26.8208 18.2377 26.5922 18.4256 26.5405 18.6861C26.3999 19.396 26.124 20.0619 25.7203 20.6653C25.5726 20.8861 25.6014 21.1805 25.7893 21.3684L26.9103 22.4893C26.9142 22.4932 26.9142 22.502 26.9103 22.5059L26.0392 23.3769C26.0346 23.3815 26.027 23.3814 26.0225 23.3769L24.9016 22.2561C24.7138 22.0683 24.4191 22.0394 24.1985 22.1871Z" fill="#58AEB6"/>
<path d="M21.1435 15.6797C21.832 15.6797 22.4734 16.051 22.8173 16.6487C22.9706 16.9151 23.3109 17.0069 23.5774 16.8535C23.8439 16.7002 23.9356 16.3599 23.7823 16.0935C23.2403 15.1515 22.2291 14.5664 21.1435 14.5664C19.4657 14.5664 18.1007 15.9314 18.1007 17.6092C18.1007 19.2869 19.4657 20.6519 21.1435 20.6519C22.2164 20.6519 23.1894 20.1037 23.7464 19.1855C23.9058 18.9226 23.8221 18.5803 23.5592 18.4209C23.2963 18.2615 22.9539 18.3452 22.7946 18.6081C22.4411 19.1908 21.8239 19.5387 21.1435 19.5387C20.0795 19.5387 19.214 18.6732 19.214 17.6092C19.214 16.5453 20.0795 15.6797 21.1435 15.6797Z" fill="#58AEB6"/>
<path d="M25.7766 4.58543C29.5846 5.94437 32.6007 8.88923 34.0516 12.6649C34.2076 13.0708 34.6052 13.3435 35.0411 13.3435H36.3187C36.6622 13.3435 36.9859 13.1762 37.1847 12.896C37.3836 12.6157 37.4344 12.2549 37.3209 11.9307C36.4702 9.50131 35.1041 7.33509 33.2605 5.49223C31.323 3.55475 29.0368 2.14823 26.4655 1.31171C26.1425 1.20662 25.786 1.26303 25.5114 1.46238C25.2374 1.66136 25.0739 1.98236 25.0739 2.32094V3.58711C25.0739 4.03413 25.3562 4.43543 25.7766 4.58543ZM26.1871 2.39189C28.5632 3.17609 30.6777 4.48375 32.4732 6.27932C32.4733 6.27932 32.4733 6.2794 32.4734 6.2794C34.1804 7.98576 35.4496 9.98766 36.2461 12.2301H35.0772C33.5091 8.17984 30.2723 5.01953 26.1871 3.54993V2.39189Z" fill="#58AEB6"/>
<path d="M36.5373 21.2031H35.2812C34.8226 21.2031 34.4178 21.4959 34.274 21.9316C32.9459 25.9548 29.7698 29.2073 25.7779 30.6322C25.3568 30.7826 25.0739 31.184 25.0739 31.6311V32.8973C25.0882 33.528 25.7014 34.1457 26.4655 33.9065C29.0369 33.07 31.323 31.6634 33.2606 29.726C35.2637 27.7228 36.7485 25.2485 37.5541 22.5708C37.6518 22.246 37.5918 21.9037 37.3894 21.6314C37.1869 21.3592 36.8764 21.2031 36.5373 21.2031ZM32.4732 28.9388C30.6777 30.7344 28.5631 32.042 26.1871 32.8262V31.6682C30.4717 30.1266 33.8814 26.6349 35.3193 22.3164H36.4679C35.7105 24.7932 34.3303 27.0818 32.4732 28.9388Z" fill="#58AEB6"/>
<path d="M16.5086 30.6332C13.1609 29.4382 10.4275 27.03 8.81207 23.852C8.5722 23.3801 8.01615 23.1545 7.51814 23.3275C7.18965 23.4416 6.84899 23.5274 6.50558 23.5827C6.17003 23.6366 5.88771 23.8404 5.73088 24.1417C5.5748 24.4417 5.56998 24.7881 5.71745 25.0918C6.54788 26.8025 7.66109 28.362 9.02597 29.7269C10.9635 31.6644 13.2496 33.0709 15.821 33.9075C16.3785 34.1205 17.2286 33.6582 17.2127 32.8982V31.6321C17.2129 31.1848 16.9298 30.7834 16.5086 30.6332ZM16.0996 32.8271C13.7236 32.0429 11.6089 30.7353 9.81343 28.9397C8.55364 27.6799 7.52349 26.2439 6.7508 24.6704C7.11959 24.6073 7.48512 24.5146 7.83907 24.3944C9.58076 27.7975 12.5119 30.3787 16.0996 31.6692V32.8271Z" fill="#58AEB6"/>
<path d="M20.2729 4.70435H22.2012C22.9665 4.70435 23.5892 4.08173 23.5892 3.31639V1.38796C23.5892 0.622621 22.9665 0 22.2012 0H20.2729C19.5075 0 18.8849 0.622621 18.8849 1.38796V3.31632C18.8849 4.08173 19.5076 4.70435 20.2729 4.70435ZM19.9982 1.38796C19.9982 1.23648 20.1214 1.11328 20.2729 1.11328H22.2012C22.3527 1.11328 22.4759 1.23648 22.4759 1.38796V3.31632C22.4759 3.4678 22.3527 3.591 22.2012 3.591H20.2729C20.1214 3.591 19.9982 3.4678 19.9982 3.31632V1.38796Z" fill="#58AEB6"/>
<path d="M22.2012 30.5156H20.2729C19.5075 30.5156 18.8849 31.1382 18.8849 31.9036V33.8319C18.8849 34.5973 19.5076 35.2199 20.2729 35.2199H22.2012C22.9665 35.2199 23.5892 34.5973 23.5892 33.8319V31.9036C23.5892 31.1382 22.9665 30.5156 22.2012 30.5156ZM22.4759 33.832C22.4759 33.9835 22.3527 34.1067 22.2012 34.1067H20.2729C20.1214 34.1067 19.9982 33.9835 19.9982 33.832V31.9037C19.9982 31.7522 20.1214 31.629 20.2729 31.629H22.2012C22.3527 31.629 22.4759 31.7522 22.4759 31.9037V33.832Z" fill="#58AEB6"/>
<path d="M37.112 14.7988H35.1836C34.4183 14.7988 33.7957 15.4215 33.7957 16.1869V18.1152C33.7957 18.8806 34.4183 19.5033 35.1836 19.5033H37.112C37.8773 19.5033 38.4999 18.8806 38.4999 18.1152V16.1869C38.4999 15.4214 37.8772 14.7988 37.112 14.7988ZM37.3867 18.1151C37.3867 18.2666 37.2635 18.3899 37.112 18.3899H35.1836C35.0321 18.3899 34.9089 18.2666 34.9089 18.1151V16.1868C34.9089 16.0353 35.0321 15.912 35.1836 15.912H37.112C37.2635 15.912 37.3867 16.0353 37.3867 16.1868V18.1151Z" fill="#58AEB6"/>
<path d="M3.7079 17.2717C3.49044 17.4891 3.49044 17.8414 3.70783 18.0588L4.62881 18.9799C4.73324 19.0843 4.87477 19.1429 5.02247 19.1429C5.17016 19.1429 5.31162 19.0843 5.41612 18.9799L7.36964 17.0264C7.58702 16.809 7.58702 16.4565 7.36964 16.2392C7.15217 16.0218 6.79978 16.0218 6.5824 16.2392L5.02247 17.7991L4.49514 17.2717C4.27768 17.0543 3.92522 17.0542 3.7079 17.2717Z" fill="#58AEB6"/>
<path d="M10.5773 17.6102C10.5773 15.3805 9.0831 13.3902 6.9436 12.7702C6.64858 12.6847 6.33953 12.8546 6.25403 13.1499C6.16846 13.4452 6.33842 13.7539 6.63366 13.8395C8.30017 14.3225 9.46407 15.8731 9.46407 17.6103C9.46407 19.7748 7.70308 21.5357 5.53864 21.5357C3.3742 21.5357 1.61328 19.7747 1.61328 17.6102C1.61328 15.8815 2.72107 14.3751 4.36991 13.8616C4.66337 13.7702 4.82725 13.4581 4.73589 13.1646C4.64445 12.8711 4.3328 12.7069 4.03882 12.7986C1.92211 13.4578 0.5 15.3914 0.5 17.6102C0.5 20.3886 2.76033 22.6489 5.53871 22.6489C8.31709 22.6489 10.5773 20.3886 10.5773 17.6102Z" fill="#58AEB6"/>
<path d="M11.3582 2.90889H15.5923L14.8133 3.68789C14.5959 3.90528 14.5959 4.25774 14.8133 4.47506C14.922 4.58371 15.0645 4.63811 15.2069 4.63811C15.3493 4.63811 15.4918 4.58379 15.6006 4.47506L17.3298 2.74583C17.5199 2.56103 17.5689 2.1929 17.3298 1.95867L15.6006 0.229446C15.3831 0.0120596 15.0307 0.0120596 14.8133 0.229446C14.5959 0.446833 14.5959 0.799298 14.8133 1.01661L15.5923 1.79561H11.3582C11.0507 1.79561 10.8015 2.04484 10.8015 2.35225C10.8015 2.65967 11.0507 2.90889 11.3582 2.90889Z" fill="#58AEB6"/>
</svg>
