<svg width="39" height="65" viewBox="0 0 39 65" fill="none" xmlns="http://www.w3.org/2000/svg">
<path d="M6.99777 47.55C7.27444 47.55 7.51777 47.5133 7.72777 47.44C7.94111 47.3667 8.11944 47.265 8.26277 47.135C8.40944 47.0017 8.51944 46.8433 8.59277 46.66C8.66611 46.4767 8.70277 46.275 8.70277 46.055C8.70277 45.5983 8.56111 45.2417 8.27777 44.985C7.99777 44.7283 7.57111 44.6 6.99777 44.6H5.84777V47.55H6.99777ZM6.99777 43.835C7.45111 43.835 7.84444 43.8883 8.17777 43.995C8.51444 44.0983 8.79277 44.2467 9.01277 44.44C9.23277 44.6333 9.39611 44.8667 9.50277 45.14C9.61277 45.4133 9.66777 45.7183 9.66777 46.055C9.66777 46.3883 9.60944 46.6933 9.49277 46.97C9.37611 47.2467 9.20444 47.485 8.97777 47.685C8.75444 47.885 8.47611 48.0417 8.14277 48.155C7.81277 48.265 7.43111 48.32 6.99777 48.32H5.84777V51H4.88277V43.835H6.99777ZM11.426 46.95C11.586 46.6033 11.7826 46.3333 12.016 46.14C12.2493 45.9433 12.5343 45.845 12.871 45.845C12.9776 45.845 13.0793 45.8567 13.176 45.88C13.276 45.9033 13.3643 45.94 13.441 45.99L13.376 46.655C13.356 46.7383 13.306 46.78 13.226 46.78C13.1793 46.78 13.111 46.77 13.021 46.75C12.931 46.73 12.8293 46.72 12.716 46.72C12.556 46.72 12.4126 46.7433 12.286 46.79C12.1626 46.8367 12.051 46.9067 11.951 47C11.8543 47.09 11.766 47.2033 11.686 47.34C11.6093 47.4733 11.5393 47.6267 11.476 47.8V51H10.581V45.935H11.091C11.1876 45.935 11.2543 45.9533 11.291 45.99C11.3276 46.0267 11.3526 46.09 11.366 46.18L11.426 46.95ZM16.1535 45.855C16.5235 45.855 16.8568 45.9167 17.1535 46.04C17.4501 46.1633 17.7035 46.3383 17.9135 46.565C18.1235 46.7917 18.2835 47.0667 18.3935 47.39C18.5068 47.71 18.5635 48.0683 18.5635 48.465C18.5635 48.865 18.5068 49.225 18.3935 49.545C18.2835 49.865 18.1235 50.1383 17.9135 50.365C17.7035 50.5917 17.4501 50.7667 17.1535 50.89C16.8568 51.01 16.5235 51.07 16.1535 51.07C15.7801 51.07 15.4435 51.01 15.1435 50.89C14.8468 50.7667 14.5935 50.5917 14.3835 50.365C14.1735 50.1383 14.0118 49.865 13.8985 49.545C13.7885 49.225 13.7335 48.865 13.7335 48.465C13.7335 48.0683 13.7885 47.71 13.8985 47.39C14.0118 47.0667 14.1735 46.7917 14.3835 46.565C14.5935 46.3383 14.8468 46.1633 15.1435 46.04C15.4435 45.9167 15.7801 45.855 16.1535 45.855ZM16.1535 50.375C16.6535 50.375 17.0268 50.2083 17.2735 49.875C17.5201 49.5383 17.6435 49.07 17.6435 48.47C17.6435 47.8667 17.5201 47.3967 17.2735 47.06C17.0268 46.7233 16.6535 46.555 16.1535 46.555C15.9001 46.555 15.6785 46.5983 15.4885 46.685C15.3018 46.7717 15.1451 46.8967 15.0185 47.06C14.8951 47.2233 14.8018 47.425 14.7385 47.665C14.6785 47.9017 14.6485 48.17 14.6485 48.47C14.6485 49.07 14.7718 49.5383 15.0185 49.875C15.2685 50.2083 15.6468 50.375 16.1535 50.375ZM20.6323 45.935V51.375C20.6323 51.5783 20.6056 51.7667 20.5523 51.94C20.499 52.1167 20.414 52.27 20.2973 52.4C20.1806 52.53 20.0306 52.6317 19.8473 52.705C19.6673 52.7817 19.4506 52.82 19.1973 52.82C19.0906 52.82 18.9923 52.8117 18.9023 52.795C18.8123 52.7783 18.7223 52.7533 18.6323 52.72L18.6673 52.24C18.674 52.21 18.6856 52.1867 18.7023 52.17C18.7156 52.1567 18.7356 52.1483 18.7623 52.145C18.789 52.1417 18.824 52.14 18.8673 52.14C18.9073 52.1433 18.959 52.145 19.0223 52.145C19.2823 52.145 19.4673 52.0833 19.5773 51.96C19.6873 51.84 19.7423 51.645 19.7423 51.375V45.935H20.6323ZM20.8173 44.345C20.8173 44.4317 20.799 44.5133 20.7623 44.59C20.729 44.6633 20.6823 44.73 20.6223 44.79C20.5656 44.8467 20.499 44.8917 20.4223 44.925C20.3456 44.9583 20.264 44.975 20.1773 44.975C20.0906 44.975 20.009 44.9583 19.9323 44.925C19.859 44.8917 19.794 44.8467 19.7373 44.79C19.6806 44.73 19.6356 44.6633 19.6023 44.59C19.569 44.5133 19.5523 44.4317 19.5523 44.345C19.5523 44.2583 19.569 44.1767 19.6023 44.1C19.6356 44.02 19.6806 43.9517 19.7373 43.895C19.794 43.835 19.859 43.7883 19.9323 43.755C20.009 43.7217 20.0906 43.705 20.1773 43.705C20.264 43.705 20.3456 43.7217 20.4223 43.755C20.499 43.7883 20.5656 43.835 20.6223 43.895C20.6823 43.9517 20.729 44.02 20.7623 44.1C20.799 44.1767 20.8173 44.2583 20.8173 44.345ZM25.4846 47.915C25.4846 47.7083 25.4546 47.52 25.3946 47.35C25.338 47.1767 25.253 47.0283 25.1396 46.905C25.0296 46.7783 24.8946 46.6817 24.7346 46.615C24.5746 46.545 24.393 46.51 24.1896 46.51C23.763 46.51 23.4246 46.635 23.1746 46.885C22.928 47.1317 22.7746 47.475 22.7146 47.915H25.4846ZM26.2046 50.29C26.0946 50.4233 25.963 50.54 25.8096 50.64C25.6563 50.7367 25.4913 50.8167 25.3146 50.88C25.1413 50.9433 24.9613 50.99 24.7746 51.02C24.588 51.0533 24.403 51.07 24.2196 51.07C23.8696 51.07 23.5463 51.0117 23.2496 50.895C22.9563 50.775 22.7013 50.6017 22.4846 50.375C22.2713 50.145 22.1046 49.8617 21.9846 49.525C21.8646 49.1883 21.8046 48.8017 21.8046 48.365C21.8046 48.0117 21.858 47.6817 21.9646 47.375C22.0746 47.0683 22.2313 46.8033 22.4346 46.58C22.638 46.3533 22.8863 46.1767 23.1796 46.05C23.473 45.92 23.803 45.855 24.1696 45.855C24.473 45.855 24.753 45.9067 25.0096 46.01C25.2696 46.11 25.493 46.2567 25.6796 46.45C25.8696 46.64 26.018 46.8767 26.1246 47.16C26.2313 47.44 26.2846 47.76 26.2846 48.12C26.2846 48.26 26.2696 48.3533 26.2396 48.4C26.2096 48.4467 26.153 48.47 26.0696 48.47H22.6846C22.6946 48.79 22.738 49.0683 22.8146 49.305C22.8946 49.5417 23.0046 49.74 23.1446 49.9C23.2846 50.0567 23.4513 50.175 23.6446 50.255C23.838 50.3317 24.0546 50.37 24.2946 50.37C24.518 50.37 24.7096 50.345 24.8696 50.295C25.033 50.2417 25.173 50.185 25.2896 50.125C25.4063 50.065 25.503 50.01 25.5796 49.96C25.6596 49.9067 25.728 49.88 25.7846 49.88C25.858 49.88 25.9146 49.9083 25.9546 49.965L26.2046 50.29ZM30.9029 46.835C30.8762 46.8717 30.8495 46.9 30.8229 46.92C30.7962 46.94 30.7595 46.95 30.7129 46.95C30.6629 46.95 30.6079 46.93 30.5479 46.89C30.4879 46.8467 30.4129 46.8 30.3229 46.75C30.2362 46.7 30.1279 46.655 29.9979 46.615C29.8712 46.5717 29.7145 46.55 29.5279 46.55C29.2779 46.55 29.0579 46.595 28.8679 46.685C28.6779 46.7717 28.5179 46.8983 28.3879 47.065C28.2612 47.2317 28.1645 47.4333 28.0979 47.67C28.0345 47.9067 28.0029 48.1717 28.0029 48.465C28.0029 48.7717 28.0379 49.045 28.1079 49.285C28.1779 49.5217 28.2762 49.7217 28.4029 49.885C28.5329 50.045 28.6879 50.1683 28.8679 50.255C29.0512 50.3383 29.2562 50.38 29.4829 50.38C29.6995 50.38 29.8779 50.355 30.0179 50.305C30.1579 50.2517 30.2729 50.1933 30.3629 50.13C30.4562 50.0667 30.5329 50.01 30.5929 49.96C30.6562 49.9067 30.7179 49.88 30.7779 49.88C30.8512 49.88 30.9079 49.9083 30.9479 49.965L31.1979 50.29C31.0879 50.4267 30.9629 50.5433 30.8229 50.64C30.6829 50.7367 30.5312 50.8183 30.3679 50.885C30.2079 50.9483 30.0395 50.995 29.8629 51.025C29.6862 51.055 29.5062 51.07 29.3229 51.07C29.0062 51.07 28.7112 51.0117 28.4379 50.895C28.1679 50.7783 27.9329 50.61 27.7329 50.39C27.5329 50.1667 27.3762 49.8933 27.2629 49.57C27.1495 49.2467 27.0929 48.8783 27.0929 48.465C27.0929 48.0883 27.1445 47.74 27.2479 47.42C27.3545 47.1 27.5079 46.825 27.7079 46.595C27.9112 46.3617 28.1595 46.18 28.4529 46.05C28.7495 45.92 29.0895 45.855 29.4729 45.855C29.8295 45.855 30.1429 45.9133 30.4129 46.03C30.6862 46.1433 30.9279 46.305 31.1379 46.515L30.9029 46.835ZM33.7082 51.08C33.3082 51.08 32.9999 50.9683 32.7832 50.745C32.5699 50.5217 32.4632 50.2 32.4632 49.78V46.68H31.8532C31.7999 46.68 31.7549 46.665 31.7182 46.635C31.6816 46.6017 31.6632 46.5517 31.6632 46.485V46.13L32.4932 46.025L32.6982 44.46C32.7082 44.41 32.7299 44.37 32.7632 44.34C32.7999 44.3067 32.8466 44.29 32.9032 44.29H33.3532V46.035H34.8182V46.68H33.3532V49.72C33.3532 49.9333 33.4049 50.0917 33.5082 50.195C33.6116 50.2983 33.7449 50.35 33.9082 50.35C34.0016 50.35 34.0816 50.3383 34.1482 50.315C34.2182 50.2883 34.2782 50.26 34.3282 50.23C34.3782 50.2 34.4199 50.1733 34.4532 50.15C34.4899 50.1233 34.5216 50.11 34.5482 50.11C34.5949 50.11 34.6366 50.1383 34.6732 50.195L34.9332 50.62C34.7799 50.7633 34.5949 50.8767 34.3782 50.96C34.1616 51.04 33.9382 51.08 33.7082 51.08ZM17.7382 55.835V63H16.8882V57.735C16.8882 57.665 16.8898 57.59 16.8932 57.51C16.8998 57.43 16.9065 57.3483 16.9132 57.265L14.4532 61.745C14.3765 61.895 14.2598 61.97 14.1032 61.97H13.9632C13.8065 61.97 13.6898 61.895 13.6132 61.745L11.1032 57.245C11.1232 57.4217 11.1332 57.585 11.1332 57.735V63H10.2832V55.835H10.9982C11.0848 55.835 11.1515 55.8433 11.1982 55.86C11.2448 55.8767 11.2898 55.9233 11.3332 56L13.8082 60.41C13.8482 60.49 13.8865 60.5733 13.9232 60.66C13.9632 60.7467 13.9998 60.835 14.0332 60.925C14.0665 60.835 14.1015 60.7467 14.1382 60.66C14.1748 60.57 14.2148 60.485 14.2582 60.405L16.6882 56C16.7282 55.9233 16.7715 55.8767 16.8182 55.86C16.8682 55.8433 16.9365 55.835 17.0232 55.835H17.7382ZM20.9593 60.525C21.1393 60.525 21.2976 60.5 21.4343 60.45C21.5709 60.4 21.6859 60.33 21.7793 60.24C21.8726 60.15 21.9426 60.0433 21.9893 59.92C22.0359 59.7933 22.0593 59.655 22.0593 59.505C22.0593 59.195 21.9643 58.9483 21.7743 58.765C21.5876 58.5817 21.3159 58.49 20.9593 58.49C20.5993 58.49 20.3243 58.5817 20.1343 58.765C19.9476 58.9483 19.8543 59.195 19.8543 59.505C19.8543 59.655 19.8776 59.7933 19.9243 59.92C19.9743 60.0433 20.0459 60.15 20.1393 60.24C20.2326 60.33 20.3476 60.4 20.4843 60.45C20.6209 60.5 20.7793 60.525 20.9593 60.525ZM22.5643 63.275C22.5643 63.1517 22.5293 63.0517 22.4593 62.975C22.3893 62.8983 22.2943 62.8383 22.1743 62.795C22.0576 62.7517 21.9209 62.7217 21.7643 62.705C21.6076 62.685 21.4409 62.67 21.2643 62.66C21.0909 62.65 20.9143 62.64 20.7343 62.63C20.5543 62.62 20.3809 62.6033 20.2143 62.58C20.0276 62.6667 19.8743 62.7767 19.7543 62.91C19.6376 63.04 19.5793 63.1933 19.5793 63.37C19.5793 63.4833 19.6076 63.5883 19.6643 63.685C19.7243 63.785 19.8143 63.87 19.9343 63.94C20.0543 64.0133 20.2043 64.07 20.3843 64.11C20.5676 64.1533 20.7826 64.175 21.0293 64.175C21.2693 64.175 21.4843 64.1533 21.6743 64.11C21.8643 64.0667 22.0243 64.005 22.1543 63.925C22.2876 63.845 22.3893 63.75 22.4593 63.64C22.5293 63.53 22.5643 63.4083 22.5643 63.275ZM23.4693 58.135V58.465C23.4693 58.575 23.3993 58.645 23.2593 58.675L22.6843 58.75C22.7976 58.97 22.8543 59.2133 22.8543 59.48C22.8543 59.7267 22.8059 59.9517 22.7093 60.155C22.6159 60.355 22.4859 60.5267 22.3193 60.67C22.1526 60.8133 21.9526 60.9233 21.7193 61C21.4859 61.0767 21.2326 61.115 20.9593 61.115C20.7226 61.115 20.4993 61.0867 20.2893 61.03C20.1826 61.0967 20.1009 61.1683 20.0443 61.245C19.9876 61.3183 19.9593 61.3933 19.9593 61.47C19.9593 61.59 20.0076 61.6817 20.1043 61.745C20.2043 61.805 20.3343 61.8483 20.4943 61.875C20.6543 61.9017 20.8359 61.9183 21.0393 61.925C21.2459 61.9317 21.4559 61.9433 21.6693 61.96C21.8859 61.9733 22.0959 61.9983 22.2993 62.035C22.5059 62.0717 22.6893 62.1317 22.8493 62.215C23.0093 62.2983 23.1376 62.4133 23.2343 62.56C23.3343 62.7067 23.3843 62.8967 23.3843 63.13C23.3843 63.3467 23.3293 63.5567 23.2193 63.76C23.1126 63.9633 22.9576 64.1433 22.7543 64.3C22.5509 64.46 22.3009 64.5867 22.0043 64.68C21.7109 64.7767 21.3793 64.825 21.0093 64.825C20.6393 64.825 20.3159 64.7883 20.0393 64.715C19.7626 64.6417 19.5326 64.5433 19.3493 64.42C19.1659 64.2967 19.0276 64.1533 18.9343 63.99C18.8443 63.83 18.7993 63.6617 18.7993 63.485C18.7993 63.235 18.8776 63.0233 19.0343 62.85C19.1909 62.6767 19.4059 62.5383 19.6793 62.435C19.5293 62.3683 19.4093 62.28 19.3193 62.17C19.2326 62.0567 19.1893 61.905 19.1893 61.715C19.1893 61.6417 19.2026 61.5667 19.2293 61.49C19.2559 61.41 19.2959 61.3317 19.3493 61.255C19.4059 61.175 19.4743 61.1 19.5543 61.03C19.6343 60.96 19.7276 60.8983 19.8343 60.845C19.5843 60.705 19.3893 60.52 19.2493 60.29C19.1093 60.0567 19.0393 59.7867 19.0393 59.48C19.0393 59.2333 19.0859 59.01 19.1793 58.81C19.2759 58.6067 19.4093 58.435 19.5793 58.295C19.7493 58.1517 19.9509 58.0417 20.1843 57.965C20.4209 57.8883 20.6793 57.85 20.9593 57.85C21.1793 57.85 21.3843 57.875 21.5743 57.925C21.7643 57.9717 21.9376 58.0417 22.0943 58.135H23.4693ZM25.9446 63.08C25.5446 63.08 25.2362 62.9683 25.0196 62.745C24.8062 62.5217 24.6996 62.2 24.6996 61.78V58.68H24.0896C24.0362 58.68 23.9912 58.665 23.9546 58.635C23.9179 58.6017 23.8996 58.5517 23.8996 58.485V58.13L24.7296 58.025L24.9346 56.46C24.9446 56.41 24.9662 56.37 24.9996 56.34C25.0362 56.3067 25.0829 56.29 25.1396 56.29H25.5896V58.035H27.0546V58.68H25.5896V61.72C25.5896 61.9333 25.6412 62.0917 25.7446 62.195C25.8479 62.2983 25.9812 62.35 26.1446 62.35C26.2379 62.35 26.3179 62.3383 26.3846 62.315C26.4546 62.2883 26.5146 62.26 26.5646 62.23C26.6146 62.2 26.6562 62.1733 26.6896 62.15C26.7262 62.1233 26.7579 62.11 26.7846 62.11C26.8312 62.11 26.8729 62.1383 26.9096 62.195L27.1696 62.62C27.0162 62.7633 26.8312 62.8767 26.6146 62.96C26.3979 63.04 26.1746 63.08 25.9446 63.08ZM27.8236 62.45C27.8236 62.3633 27.8386 62.2817 27.8686 62.205C27.9019 62.1283 27.9452 62.0617 27.9986 62.005C28.0552 61.9483 28.1219 61.9033 28.1986 61.87C28.2752 61.8367 28.3569 61.82 28.4436 61.82C28.5302 61.82 28.6119 61.8367 28.6886 61.87C28.7652 61.9033 28.8319 61.9483 28.8886 62.005C28.9452 62.0617 28.9902 62.1283 29.0236 62.205C29.0569 62.2817 29.0736 62.3633 29.0736 62.45C29.0736 62.54 29.0569 62.6233 29.0236 62.7C28.9902 62.7733 28.9452 62.8383 28.8886 62.895C28.8319 62.9517 28.7652 62.995 28.6886 63.025C28.6119 63.0583 28.5302 63.075 28.4436 63.075C28.3569 63.075 28.2752 63.0583 28.1986 63.025C28.1219 62.995 28.0552 62.9517 27.9986 62.895C27.9452 62.8383 27.9019 62.7733 27.8686 62.7C27.8386 62.6233 27.8236 62.54 27.8236 62.45Z" fill="#58AEB6"/>
<path d="M26.8263 24.1642L27.6973 23.2932C27.9098 23.0807 28.0268 22.7982 28.0268 22.4977C28.0268 22.1971 27.9098 21.9146 27.6974 21.7021L26.8883 20.8931C27.1671 20.407 27.381 19.8909 27.5275 19.3511H28.6712C29.2915 19.3511 29.7962 18.8464 29.7962 18.226V16.9942C29.7962 16.3738 29.2915 15.8691 28.6712 15.8691H27.5275C27.3809 15.3292 27.1671 14.8132 26.8883 14.3271L27.6973 13.5181C27.9098 13.3056 28.0268 13.023 28.0268 12.7225C28.0268 12.422 27.9098 12.1395 27.6973 11.927L26.8263 11.0559C26.3877 10.6174 25.6739 10.6172 25.2352 11.0559L24.4262 11.8649C23.9401 11.5862 23.4241 11.3723 22.8842 11.2258V10.0821C22.8842 9.46179 22.3794 8.95703 21.7591 8.95703H20.5273C19.907 8.95703 19.4022 9.46172 19.4022 10.0821V11.2258C18.8623 11.3724 18.3462 11.5862 17.8603 11.8649L17.0513 11.056C16.8389 10.8434 16.5563 10.7264 16.2557 10.7264C15.9552 10.7264 15.6727 10.8434 15.4601 11.0559L14.5892 11.9269C14.3767 12.1394 14.2597 12.4219 14.2597 12.7224C14.2597 13.023 14.3767 13.3055 14.5891 13.518L15.3981 14.327C15.1194 14.813 14.9055 15.329 14.759 15.869H13.6153C12.995 15.869 12.4902 16.3737 12.4902 16.9941V18.2259C12.4902 18.8463 12.995 19.351 13.6153 19.351H14.759C14.9056 19.8909 15.1194 20.407 15.3981 20.893L14.5892 21.702C14.3767 21.9145 14.2597 22.1971 14.2597 22.4976C14.2597 22.7981 14.3767 23.0806 14.5891 23.2931L15.4601 24.1642C15.6726 24.3766 15.9552 24.4937 16.2557 24.4937C16.5563 24.4937 16.8388 24.3766 17.0513 24.1642L17.8603 23.3552C18.3463 23.6339 18.8623 23.8478 19.4022 23.9943V25.138C19.4022 25.7583 19.907 26.2631 20.5273 26.2631H21.7591C22.3794 26.2631 22.8842 25.7584 22.8842 25.138V23.9943C23.4241 23.8477 23.9402 23.6339 24.4262 23.3552L25.2352 24.1642C25.6739 24.6028 26.3877 24.6029 26.8263 24.1642ZM24.1985 22.1871C23.5953 22.5907 22.9293 22.8667 22.2193 23.0074C21.9587 23.059 21.7709 23.2877 21.7709 23.5534V25.1381C21.7709 25.1445 21.7656 25.1499 21.7591 25.1499H20.5273C20.5208 25.1499 20.5155 25.1446 20.5155 25.1381V23.5534C20.5155 23.2877 20.3277 23.059 20.0671 23.0074C19.3571 22.8667 18.6911 22.5906 18.0879 22.1871C17.9936 22.124 17.8857 22.0932 17.7785 22.0932C17.6349 22.0932 17.4924 22.1486 17.3848 22.2562L16.2639 23.3771C16.26 23.3809 16.2512 23.3809 16.2473 23.377L15.3762 22.506C15.3723 22.502 15.3723 22.4933 15.3763 22.4893L16.4971 21.3685C16.6849 21.1806 16.7138 20.8862 16.5661 20.6653C16.1626 20.0622 15.8866 19.3963 15.7458 18.6861C15.6943 18.4255 15.4656 18.2377 15.1999 18.2377H13.6152C13.6087 18.2377 13.6034 18.2324 13.6034 18.2259V16.9941C13.6034 16.9876 13.6087 16.9823 13.6152 16.9823H15.1999C15.4656 16.9823 15.6943 16.7945 15.7458 16.5339C15.8866 15.8238 16.1626 15.1579 16.5661 14.5547C16.7138 14.3338 16.685 14.0395 16.4971 13.8515L15.3762 12.7307C15.3723 12.7268 15.3723 12.718 15.3763 12.7141L16.2473 11.843C16.2512 11.8392 16.26 11.8391 16.2639 11.843L17.3848 12.9638C17.5726 13.1517 17.8672 13.1805 18.0879 13.0329C18.6911 12.6293 19.3571 12.3534 20.0671 12.2126C20.3277 12.161 20.5155 11.9323 20.5155 11.6666V10.082C20.5155 10.0756 20.5208 10.0702 20.5273 10.0702H21.7591C21.7656 10.0702 21.7709 10.0755 21.7709 10.082V11.6667C21.7709 11.9324 21.9587 12.1611 22.2193 12.2127C22.9293 12.3534 23.5953 12.6294 24.1985 13.033C24.4194 13.1806 24.7138 13.1519 24.9016 12.9639L26.0225 11.8431C26.0271 11.8384 26.0346 11.8386 26.0392 11.8431L26.9103 12.7141C26.9142 12.7181 26.9142 12.7268 26.9102 12.7308L25.7893 13.8516C25.6015 14.0395 25.5726 14.3339 25.7203 14.5548C26.1239 15.1581 26.3999 15.824 26.5405 16.5339C26.5922 16.7945 26.8208 16.9823 27.0865 16.9823H28.6713C28.6777 16.9823 28.683 16.9876 28.683 16.9941V18.2259C28.683 18.2324 28.6777 18.2377 28.6713 18.2377H27.0865C26.8208 18.2377 26.5922 18.4256 26.5405 18.6861C26.3999 19.396 26.124 20.0619 25.7203 20.6653C25.5726 20.8861 25.6014 21.1805 25.7893 21.3684L26.9103 22.4893C26.9142 22.4932 26.9142 22.502 26.9103 22.5059L26.0392 23.3769C26.0346 23.3815 26.027 23.3814 26.0225 23.3769L24.9016 22.2561C24.7138 22.0683 24.4191 22.0394 24.1985 22.1871Z" fill="#58AEB6"/>
<path d="M21.1435 15.6797C21.832 15.6797 22.4734 16.051 22.8173 16.6487C22.9706 16.9151 23.3109 17.0069 23.5774 16.8535C23.8439 16.7002 23.9356 16.3599 23.7823 16.0935C23.2403 15.1515 22.2291 14.5664 21.1435 14.5664C19.4657 14.5664 18.1007 15.9314 18.1007 17.6092C18.1007 19.2869 19.4657 20.6519 21.1435 20.6519C22.2164 20.6519 23.1894 20.1037 23.7464 19.1855C23.9058 18.9226 23.8221 18.5803 23.5592 18.4209C23.2963 18.2615 22.9539 18.3452 22.7946 18.6081C22.4411 19.1908 21.8239 19.5387 21.1435 19.5387C20.0795 19.5387 19.214 18.6732 19.214 17.6092C19.214 16.5453 20.0795 15.6797 21.1435 15.6797Z" fill="#58AEB6"/>
<path d="M25.7766 4.58543C29.5846 5.94437 32.6007 8.88923 34.0516 12.6649C34.2076 13.0708 34.6052 13.3435 35.0411 13.3435H36.3187C36.6622 13.3435 36.9859 13.1762 37.1847 12.896C37.3836 12.6157 37.4344 12.2549 37.3209 11.9307C36.4702 9.50131 35.1041 7.33509 33.2605 5.49223C31.323 3.55475 29.0368 2.14823 26.4655 1.31171C26.1425 1.20662 25.786 1.26303 25.5114 1.46238C25.2374 1.66136 25.0739 1.98236 25.0739 2.32094V3.58711C25.0739 4.03413 25.3562 4.43543 25.7766 4.58543ZM26.1871 2.39189C28.5632 3.17609 30.6777 4.48375 32.4732 6.27932C32.4733 6.27932 32.4733 6.2794 32.4734 6.2794C34.1804 7.98576 35.4496 9.98766 36.2461 12.2301H35.0772C33.5091 8.17984 30.2723 5.01953 26.1871 3.54993V2.39189Z" fill="#58AEB6"/>
<path d="M36.5373 21.2031H35.2812C34.8226 21.2031 34.4178 21.4959 34.274 21.9316C32.9459 25.9548 29.7698 29.2073 25.7779 30.6322C25.3568 30.7826 25.0739 31.184 25.0739 31.6311V32.8973C25.0882 33.528 25.7014 34.1457 26.4655 33.9065C29.0369 33.07 31.323 31.6634 33.2606 29.726C35.2637 27.7228 36.7485 25.2485 37.5541 22.5708C37.6518 22.246 37.5918 21.9037 37.3894 21.6314C37.1869 21.3592 36.8764 21.2031 36.5373 21.2031ZM32.4732 28.9388C30.6777 30.7344 28.5631 32.042 26.1871 32.8262V31.6682C30.4717 30.1266 33.8814 26.6349 35.3193 22.3164H36.4679C35.7105 24.7932 34.3303 27.0818 32.4732 28.9388Z" fill="#58AEB6"/>
<path d="M16.5086 30.6332C13.1609 29.4382 10.4275 27.03 8.81207 23.852C8.5722 23.3801 8.01615 23.1545 7.51814 23.3275C7.18965 23.4416 6.84899 23.5274 6.50558 23.5827C6.17003 23.6366 5.88771 23.8404 5.73088 24.1417C5.5748 24.4417 5.56998 24.7881 5.71745 25.0918C6.54788 26.8025 7.66109 28.362 9.02597 29.7269C10.9635 31.6644 13.2496 33.0709 15.821 33.9075C16.3785 34.1205 17.2286 33.6582 17.2127 32.8982V31.6321C17.2129 31.1848 16.9298 30.7834 16.5086 30.6332ZM16.0996 32.8271C13.7236 32.0429 11.6089 30.7353 9.81343 28.9397C8.55364 27.6799 7.52349 26.2439 6.7508 24.6704C7.11959 24.6073 7.48512 24.5146 7.83907 24.3944C9.58076 27.7975 12.5119 30.3787 16.0996 31.6692V32.8271Z" fill="#58AEB6"/>
<path d="M20.2729 4.70435H22.2012C22.9665 4.70435 23.5892 4.08173 23.5892 3.31639V1.38796C23.5892 0.622621 22.9665 0 22.2012 0H20.2729C19.5075 0 18.8849 0.622621 18.8849 1.38796V3.31632C18.8849 4.08173 19.5076 4.70435 20.2729 4.70435ZM19.9982 1.38796C19.9982 1.23648 20.1214 1.11328 20.2729 1.11328H22.2012C22.3527 1.11328 22.4759 1.23648 22.4759 1.38796V3.31632C22.4759 3.4678 22.3527 3.591 22.2012 3.591H20.2729C20.1214 3.591 19.9982 3.4678 19.9982 3.31632V1.38796Z" fill="#58AEB6"/>
<path d="M22.2012 30.5156H20.2729C19.5075 30.5156 18.8849 31.1382 18.8849 31.9036V33.8319C18.8849 34.5973 19.5076 35.2199 20.2729 35.2199H22.2012C22.9665 35.2199 23.5892 34.5973 23.5892 33.8319V31.9036C23.5892 31.1382 22.9665 30.5156 22.2012 30.5156ZM22.4759 33.832C22.4759 33.9835 22.3527 34.1067 22.2012 34.1067H20.2729C20.1214 34.1067 19.9982 33.9835 19.9982 33.832V31.9037C19.9982 31.7522 20.1214 31.629 20.2729 31.629H22.2012C22.3527 31.629 22.4759 31.7522 22.4759 31.9037V33.832Z" fill="#58AEB6"/>
<path d="M37.112 14.7988H35.1836C34.4183 14.7988 33.7957 15.4215 33.7957 16.1869V18.1152C33.7957 18.8806 34.4183 19.5033 35.1836 19.5033H37.112C37.8773 19.5033 38.4999 18.8806 38.4999 18.1152V16.1869C38.4999 15.4214 37.8772 14.7988 37.112 14.7988ZM37.3867 18.1151C37.3867 18.2666 37.2635 18.3899 37.112 18.3899H35.1836C35.0321 18.3899 34.9089 18.2666 34.9089 18.1151V16.1868C34.9089 16.0353 35.0321 15.912 35.1836 15.912H37.112C37.2635 15.912 37.3867 16.0353 37.3867 16.1868V18.1151Z" fill="#58AEB6"/>
<path d="M3.7079 17.2717C3.49044 17.4891 3.49044 17.8414 3.70783 18.0588L4.62881 18.9799C4.73324 19.0843 4.87477 19.1429 5.02247 19.1429C5.17016 19.1429 5.31162 19.0843 5.41612 18.9799L7.36964 17.0264C7.58702 16.809 7.58702 16.4565 7.36964 16.2392C7.15217 16.0218 6.79978 16.0218 6.5824 16.2392L5.02247 17.7991L4.49514 17.2717C4.27768 17.0543 3.92522 17.0542 3.7079 17.2717Z" fill="#58AEB6"/>
<path d="M10.5773 17.6102C10.5773 15.3805 9.0831 13.3902 6.9436 12.7702C6.64858 12.6847 6.33953 12.8546 6.25403 13.1499C6.16846 13.4452 6.33842 13.7539 6.63366 13.8395C8.30017 14.3225 9.46407 15.8731 9.46407 17.6103C9.46407 19.7748 7.70308 21.5357 5.53864 21.5357C3.3742 21.5357 1.61328 19.7747 1.61328 17.6102C1.61328 15.8815 2.72107 14.3751 4.36991 13.8616C4.66337 13.7702 4.82725 13.4581 4.73589 13.1646C4.64445 12.8711 4.3328 12.7069 4.03882 12.7986C1.92211 13.4578 0.5 15.3914 0.5 17.6102C0.5 20.3886 2.76033 22.6489 5.53871 22.6489C8.31709 22.6489 10.5773 20.3886 10.5773 17.6102Z" fill="#58AEB6"/>
<path d="M11.3582 2.90889H15.5923L14.8133 3.68789C14.5959 3.90528 14.5959 4.25774 14.8133 4.47506C14.922 4.58371 15.0645 4.63811 15.2069 4.63811C15.3493 4.63811 15.4918 4.58379 15.6006 4.47506L17.3298 2.74583C17.5199 2.56103 17.5689 2.1929 17.3298 1.95867L15.6006 0.229446C15.3831 0.0120596 15.0307 0.0120596 14.8133 0.229446C14.5959 0.446833 14.5959 0.799298 14.8133 1.01661L15.5923 1.79561H11.3582C11.0507 1.79561 10.8015 2.04484 10.8015 2.35225C10.8015 2.65967 11.0507 2.90889 11.3582 2.90889Z" fill="#58AEB6"/>
</svg>
