<svg width="39" height="53" viewBox="0 0 39 53" fill="none" xmlns="http://www.w3.org/2000/svg">
<path d="M11.4509 47.55C11.7276 47.55 11.9709 47.5133 12.1809 47.44C12.3942 47.3667 12.5726 47.265 12.7159 47.135C12.8626 47.0017 12.9726 46.8433 13.0459 46.66C13.1192 46.4767 13.1559 46.275 13.1559 46.055C13.1559 45.5983 13.0142 45.2417 12.7309 44.985C12.4509 44.7283 12.0242 44.6 11.4509 44.6H10.3009V47.55H11.4509ZM11.4509 43.835C11.9042 43.835 12.2976 43.8883 12.6309 43.995C12.9676 44.0983 13.2459 44.2467 13.4659 44.44C13.6859 44.6333 13.8492 44.8667 13.9559 45.14C14.0659 45.4133 14.1209 45.7183 14.1209 46.055C14.1209 46.3883 14.0626 46.6933 13.9459 46.97C13.8292 47.2467 13.6576 47.485 13.4309 47.685C13.2076 47.885 12.9292 48.0417 12.5959 48.155C12.2659 48.265 11.8842 48.32 11.4509 48.32H10.3009V51H9.3359V43.835H11.4509ZM15.8791 46.95C16.0391 46.6033 16.2358 46.3333 16.4691 46.14C16.7024 45.9433 16.9874 45.845 17.3241 45.845C17.4308 45.845 17.5324 45.8567 17.6291 45.88C17.7291 45.9033 17.8174 45.94 17.8941 45.99L17.8291 46.655C17.8091 46.7383 17.7591 46.78 17.6791 46.78C17.6324 46.78 17.5641 46.77 17.4741 46.75C17.3841 46.73 17.2824 46.72 17.1691 46.72C17.0091 46.72 16.8658 46.7433 16.7391 46.79C16.6158 46.8367 16.5041 46.9067 16.4041 47C16.3074 47.09 16.2191 47.2033 16.1391 47.34C16.0624 47.4733 15.9924 47.6267 15.9291 47.8V51H15.0341V45.935H15.5441C15.6408 45.935 15.7074 45.9533 15.7441 45.99C15.7808 46.0267 15.8058 46.09 15.8191 46.18L15.8791 46.95ZM20.6066 45.855C20.9766 45.855 21.3099 45.9167 21.6066 46.04C21.9033 46.1633 22.1566 46.3383 22.3666 46.565C22.5766 46.7917 22.7366 47.0667 22.8466 47.39C22.9599 47.71 23.0166 48.0683 23.0166 48.465C23.0166 48.865 22.9599 49.225 22.8466 49.545C22.7366 49.865 22.5766 50.1383 22.3666 50.365C22.1566 50.5917 21.9033 50.7667 21.6066 50.89C21.3099 51.01 20.9766 51.07 20.6066 51.07C20.2333 51.07 19.8966 51.01 19.5966 50.89C19.2999 50.7667 19.0466 50.5917 18.8366 50.365C18.6266 50.1383 18.4649 49.865 18.3516 49.545C18.2416 49.225 18.1866 48.865 18.1866 48.465C18.1866 48.0683 18.2416 47.71 18.3516 47.39C18.4649 47.0667 18.6266 46.7917 18.8366 46.565C19.0466 46.3383 19.2999 46.1633 19.5966 46.04C19.8966 45.9167 20.2333 45.855 20.6066 45.855ZM20.6066 50.375C21.1066 50.375 21.4799 50.2083 21.7266 49.875C21.9733 49.5383 22.0966 49.07 22.0966 48.47C22.0966 47.8667 21.9733 47.3967 21.7266 47.06C21.4799 46.7233 21.1066 46.555 20.6066 46.555C20.3533 46.555 20.1316 46.5983 19.9416 46.685C19.7549 46.7717 19.5983 46.8967 19.4716 47.06C19.3483 47.2233 19.2549 47.425 19.1916 47.665C19.1316 47.9017 19.1016 48.17 19.1016 48.47C19.1016 49.07 19.2249 49.5383 19.4716 49.875C19.7216 50.2083 20.0999 50.375 20.6066 50.375ZM27.6704 46.835C27.6438 46.8717 27.6171 46.9 27.5904 46.92C27.5638 46.94 27.5271 46.95 27.4804 46.95C27.4304 46.95 27.3754 46.93 27.3154 46.89C27.2554 46.8467 27.1804 46.8 27.0904 46.75C27.0038 46.7 26.8954 46.655 26.7654 46.615C26.6388 46.5717 26.4821 46.55 26.2954 46.55C26.0454 46.55 25.8254 46.595 25.6354 46.685C25.4454 46.7717 25.2854 46.8983 25.1554 47.065C25.0288 47.2317 24.9321 47.4333 24.8654 47.67C24.8021 47.9067 24.7704 48.1717 24.7704 48.465C24.7704 48.7717 24.8054 49.045 24.8754 49.285C24.9454 49.5217 25.0438 49.7217 25.1704 49.885C25.3004 50.045 25.4554 50.1683 25.6354 50.255C25.8188 50.3383 26.0238 50.38 26.2504 50.38C26.4671 50.38 26.6454 50.355 26.7854 50.305C26.9254 50.2517 27.0404 50.1933 27.1304 50.13C27.2238 50.0667 27.3004 50.01 27.3604 49.96C27.4238 49.9067 27.4854 49.88 27.5454 49.88C27.6188 49.88 27.6754 49.9083 27.7154 49.965L27.9654 50.29C27.8554 50.4267 27.7304 50.5433 27.5904 50.64C27.4504 50.7367 27.2988 50.8183 27.1354 50.885C26.9754 50.9483 26.8071 50.995 26.6304 51.025C26.4538 51.055 26.2738 51.07 26.0904 51.07C25.7738 51.07 25.4788 51.0117 25.2054 50.895C24.9354 50.7783 24.7004 50.61 24.5004 50.39C24.3004 50.1667 24.1438 49.8933 24.0304 49.57C23.9171 49.2467 23.8604 48.8783 23.8604 48.465C23.8604 48.0883 23.9121 47.74 24.0154 47.42C24.1221 47.1 24.2754 46.825 24.4754 46.595C24.6788 46.3617 24.9271 46.18 25.2204 46.05C25.5171 45.92 25.8571 45.855 26.2404 45.855C26.5971 45.855 26.9104 45.9133 27.1804 46.03C27.4538 46.1433 27.6954 46.305 27.9054 46.515L27.6704 46.835ZM28.7708 50.45C28.7708 50.3633 28.7858 50.2817 28.8158 50.205C28.8492 50.1283 28.8925 50.0617 28.9458 50.005C29.0025 49.9483 29.0692 49.9033 29.1458 49.87C29.2225 49.8367 29.3042 49.82 29.3908 49.82C29.4775 49.82 29.5592 49.8367 29.6358 49.87C29.7125 49.9033 29.7792 49.9483 29.8358 50.005C29.8925 50.0617 29.9375 50.1283 29.9708 50.205C30.0042 50.2817 30.0208 50.3633 30.0208 50.45C30.0208 50.54 30.0042 50.6233 29.9708 50.7C29.9375 50.7733 29.8925 50.8383 29.8358 50.895C29.7792 50.9517 29.7125 50.995 29.6358 51.025C29.5592 51.0583 29.4775 51.075 29.3908 51.075C29.3042 51.075 29.2225 51.0583 29.1458 51.025C29.0692 50.995 29.0025 50.9517 28.9458 50.895C28.8925 50.8383 28.8492 50.7733 28.8158 50.7C28.7858 50.6233 28.7708 50.54 28.7708 50.45Z" fill="#58AEB6"/>
<path d="M26.8263 24.1642L27.6973 23.2932C27.9098 23.0807 28.0268 22.7982 28.0268 22.4977C28.0268 22.1971 27.9098 21.9146 27.6974 21.7021L26.8883 20.8931C27.1671 20.407 27.381 19.8909 27.5275 19.3511H28.6712C29.2915 19.3511 29.7962 18.8464 29.7962 18.226V16.9942C29.7962 16.3738 29.2915 15.8691 28.6712 15.8691H27.5275C27.3809 15.3292 27.1671 14.8132 26.8883 14.3271L27.6973 13.5181C27.9098 13.3056 28.0268 13.023 28.0268 12.7225C28.0268 12.422 27.9098 12.1395 27.6973 11.927L26.8263 11.0559C26.3877 10.6174 25.6739 10.6172 25.2352 11.0559L24.4262 11.8649C23.9401 11.5862 23.4241 11.3723 22.8842 11.2258V10.0821C22.8842 9.46179 22.3794 8.95703 21.7591 8.95703H20.5273C19.907 8.95703 19.4022 9.46172 19.4022 10.0821V11.2258C18.8623 11.3724 18.3462 11.5862 17.8603 11.8649L17.0513 11.056C16.8389 10.8434 16.5563 10.7264 16.2557 10.7264C15.9552 10.7264 15.6727 10.8434 15.4601 11.0559L14.5892 11.9269C14.3767 12.1394 14.2597 12.4219 14.2597 12.7224C14.2597 13.023 14.3767 13.3055 14.5891 13.518L15.3981 14.327C15.1194 14.813 14.9055 15.329 14.759 15.869H13.6153C12.995 15.869 12.4902 16.3737 12.4902 16.9941V18.2259C12.4902 18.8463 12.995 19.351 13.6153 19.351H14.759C14.9056 19.8909 15.1194 20.407 15.3981 20.893L14.5892 21.702C14.3767 21.9145 14.2597 22.1971 14.2597 22.4976C14.2597 22.7981 14.3767 23.0806 14.5891 23.2931L15.4601 24.1642C15.6726 24.3766 15.9552 24.4937 16.2557 24.4937C16.5563 24.4937 16.8388 24.3766 17.0513 24.1642L17.8603 23.3552C18.3463 23.6339 18.8623 23.8478 19.4022 23.9943V25.138C19.4022 25.7583 19.907 26.2631 20.5273 26.2631H21.7591C22.3794 26.2631 22.8842 25.7584 22.8842 25.138V23.9943C23.4241 23.8477 23.9402 23.6339 24.4262 23.3552L25.2352 24.1642C25.6739 24.6028 26.3877 24.6029 26.8263 24.1642ZM24.1985 22.1871C23.5953 22.5907 22.9293 22.8667 22.2193 23.0074C21.9587 23.059 21.7709 23.2877 21.7709 23.5534V25.1381C21.7709 25.1445 21.7656 25.1499 21.7591 25.1499H20.5273C20.5208 25.1499 20.5155 25.1446 20.5155 25.1381V23.5534C20.5155 23.2877 20.3277 23.059 20.0671 23.0074C19.3571 22.8667 18.6911 22.5906 18.0879 22.1871C17.9936 22.124 17.8857 22.0932 17.7785 22.0932C17.6349 22.0932 17.4924 22.1486 17.3848 22.2562L16.2639 23.3771C16.26 23.3809 16.2512 23.3809 16.2473 23.377L15.3762 22.506C15.3723 22.502 15.3723 22.4933 15.3763 22.4893L16.4971 21.3685C16.6849 21.1806 16.7138 20.8862 16.5661 20.6653C16.1626 20.0622 15.8866 19.3963 15.7458 18.6861C15.6943 18.4255 15.4656 18.2377 15.1999 18.2377H13.6152C13.6087 18.2377 13.6034 18.2324 13.6034 18.2259V16.9941C13.6034 16.9876 13.6087 16.9823 13.6152 16.9823H15.1999C15.4656 16.9823 15.6943 16.7945 15.7458 16.5339C15.8866 15.8238 16.1626 15.1579 16.5661 14.5547C16.7138 14.3338 16.685 14.0395 16.4971 13.8515L15.3762 12.7307C15.3723 12.7268 15.3723 12.718 15.3763 12.7141L16.2473 11.843C16.2512 11.8392 16.26 11.8391 16.2639 11.843L17.3848 12.9638C17.5726 13.1517 17.8672 13.1805 18.0879 13.0329C18.6911 12.6293 19.3571 12.3534 20.0671 12.2126C20.3277 12.161 20.5155 11.9323 20.5155 11.6666V10.082C20.5155 10.0756 20.5208 10.0702 20.5273 10.0702H21.7591C21.7656 10.0702 21.7709 10.0755 21.7709 10.082V11.6667C21.7709 11.9324 21.9587 12.1611 22.2193 12.2127C22.9293 12.3534 23.5953 12.6294 24.1985 13.033C24.4194 13.1806 24.7138 13.1519 24.9016 12.9639L26.0225 11.8431C26.0271 11.8384 26.0346 11.8386 26.0392 11.8431L26.9103 12.7141C26.9142 12.7181 26.9142 12.7268 26.9102 12.7308L25.7893 13.8516C25.6015 14.0395 25.5726 14.3339 25.7203 14.5548C26.1239 15.1581 26.3999 15.824 26.5405 16.5339C26.5922 16.7945 26.8208 16.9823 27.0865 16.9823H28.6713C28.6777 16.9823 28.683 16.9876 28.683 16.9941V18.2259C28.683 18.2324 28.6777 18.2377 28.6713 18.2377H27.0865C26.8208 18.2377 26.5922 18.4256 26.5405 18.6861C26.3999 19.396 26.124 20.0619 25.7203 20.6653C25.5726 20.8861 25.6014 21.1805 25.7893 21.3684L26.9103 22.4893C26.9142 22.4932 26.9142 22.502 26.9103 22.5059L26.0392 23.3769C26.0346 23.3815 26.027 23.3814 26.0225 23.3769L24.9016 22.2561C24.7138 22.0683 24.4191 22.0394 24.1985 22.1871Z" fill="#58AEB6"/>
<path d="M21.1435 15.6807C21.832 15.6807 22.4734 16.052 22.8173 16.6497C22.9706 16.9161 23.3109 17.0078 23.5774 16.8545C23.8439 16.7012 23.9356 16.3609 23.7823 16.0944C23.2403 15.1525 22.2291 14.5674 21.1435 14.5674C19.4657 14.5674 18.1007 15.9323 18.1007 17.6101C18.1007 19.2879 19.4657 20.6529 21.1435 20.6529C22.2164 20.6529 23.1894 20.1047 23.7464 19.1865C23.9058 18.9236 23.8221 18.5813 23.5592 18.4219C23.2963 18.2624 22.9539 18.3462 22.7946 18.6091C22.4411 19.1918 21.8239 19.5397 21.1435 19.5397C20.0795 19.5397 19.214 18.6741 19.214 17.6102C19.214 16.5463 20.0795 15.6807 21.1435 15.6807Z" fill="#58AEB6"/>
<path d="M25.7766 4.58543C29.5846 5.94437 32.6007 8.88923 34.0516 12.6649C34.2076 13.0708 34.6052 13.3435 35.0411 13.3435H36.3187C36.6622 13.3435 36.9859 13.1762 37.1847 12.896C37.3836 12.6157 37.4344 12.2549 37.3209 11.9307C36.4702 9.50131 35.1041 7.33509 33.2605 5.49223C31.323 3.55475 29.0368 2.14823 26.4655 1.31171C26.1425 1.20662 25.786 1.26303 25.5114 1.46238C25.2374 1.66136 25.0739 1.98236 25.0739 2.32094V3.58711C25.0739 4.03413 25.3562 4.43543 25.7766 4.58543ZM26.1871 2.39189C28.5632 3.17609 30.6777 4.48375 32.4732 6.27932C32.4733 6.27932 32.4733 6.2794 32.4734 6.2794C34.1804 7.98576 35.4496 9.98766 36.2461 12.2301H35.0772C33.5091 8.17984 30.2723 5.01953 26.1871 3.54993V2.39189Z" fill="#58AEB6"/>
<path d="M36.5373 21.2041H35.2812C34.8226 21.2041 34.4178 21.4969 34.274 21.9326C32.9459 25.9557 29.7698 29.2083 25.7779 30.6332C25.3568 30.7836 25.0739 31.185 25.0739 31.6321V32.8982C25.0882 33.5289 25.7014 34.1467 26.4655 33.9075C29.0369 33.0709 31.323 31.6644 33.2606 29.7269C35.2637 27.7238 36.7485 25.2495 37.5541 22.5717C37.6518 22.247 37.5918 21.9047 37.3894 21.6324C37.1869 21.3602 36.8764 21.2041 36.5373 21.2041ZM32.4732 28.9398C30.6777 30.7353 28.5631 32.0429 26.1871 32.8272V31.6692C30.4717 30.1276 33.8814 26.6359 35.3193 22.3174H36.4679C35.7105 24.7941 34.3303 27.0827 32.4732 28.9398Z" fill="#58AEB6"/>
<path d="M16.5086 30.6332C13.1609 29.4382 10.4275 27.03 8.81207 23.852C8.5722 23.3801 8.01615 23.1545 7.51814 23.3275C7.18965 23.4416 6.84899 23.5274 6.50558 23.5827C6.17003 23.6366 5.88771 23.8404 5.73088 24.1417C5.5748 24.4417 5.56998 24.7881 5.71745 25.0918C6.54788 26.8025 7.66109 28.362 9.02597 29.7269C10.9635 31.6644 13.2496 33.0709 15.821 33.9075C16.3785 34.1205 17.2286 33.6582 17.2127 32.8982V31.6321C17.2129 31.1848 16.9298 30.7834 16.5086 30.6332ZM16.0996 32.8271C13.7236 32.0429 11.6089 30.7353 9.81343 28.9397C8.55364 27.6799 7.52349 26.2439 6.7508 24.6704C7.11959 24.6073 7.48512 24.5146 7.83907 24.3944C9.58076 27.7975 12.5119 30.3787 16.0996 31.6692V32.8271Z" fill="#58AEB6"/>
<path d="M20.2729 4.70435H22.2012C22.9665 4.70435 23.5892 4.08173 23.5892 3.31639V1.38796C23.5892 0.622621 22.9665 0 22.2012 0H20.2729C19.5075 0 18.8849 0.622621 18.8849 1.38796V3.31632C18.8849 4.08173 19.5076 4.70435 20.2729 4.70435ZM19.9982 1.38796C19.9982 1.23648 20.1214 1.11328 20.2729 1.11328H22.2012C22.3527 1.11328 22.4759 1.23648 22.4759 1.38796V3.31632C22.4759 3.4678 22.3527 3.591 22.2012 3.591H20.2729C20.1214 3.591 19.9982 3.4678 19.9982 3.31632V1.38796Z" fill="#58AEB6"/>
<path d="M22.2012 30.5146H20.2729C19.5075 30.5146 18.8849 31.1373 18.8849 31.9026V33.831C18.8849 34.5963 19.5076 35.2189 20.2729 35.2189H22.2012C22.9665 35.2189 23.5892 34.5963 23.5892 33.831V31.9026C23.5892 31.1373 22.9665 30.5146 22.2012 30.5146ZM22.4759 33.831C22.4759 33.9825 22.3527 34.1057 22.2012 34.1057H20.2729C20.1214 34.1057 19.9982 33.9825 19.9982 33.831V31.9027C19.9982 31.7512 20.1214 31.628 20.2729 31.628H22.2012C22.3527 31.628 22.4759 31.7512 22.4759 31.9027V33.831Z" fill="#58AEB6"/>
<path d="M37.112 14.7979H35.1837C34.4183 14.7979 33.7957 15.4205 33.7957 16.1859V18.1142C33.7957 18.8796 34.4184 19.5023 35.1837 19.5023H37.112C37.8774 19.5023 38.5 18.8796 38.5 18.1142V16.1859C38.5 15.4205 37.8773 14.7979 37.112 14.7979ZM37.3867 18.1142C37.3867 18.2656 37.2635 18.3889 37.112 18.3889H35.1837C35.0322 18.3889 34.909 18.2656 34.909 18.1142V16.1858C34.909 16.0343 35.0322 15.9111 35.1837 15.9111H37.112C37.2635 15.9111 37.3867 16.0343 37.3867 16.1858V18.1142Z" fill="#58AEB6"/>
<path d="M3.7079 17.2717C3.49044 17.4891 3.49044 17.8414 3.70783 18.0588L4.62881 18.9799C4.73324 19.0843 4.87477 19.1429 5.02247 19.1429C5.17016 19.1429 5.31162 19.0843 5.41612 18.9799L7.36964 17.0264C7.58702 16.809 7.58702 16.4565 7.36964 16.2392C7.15217 16.0218 6.79978 16.0218 6.5824 16.2392L5.02247 17.7991L4.49514 17.2717C4.27768 17.0543 3.92522 17.0542 3.7079 17.2717Z" fill="#58AEB6"/>
<path d="M10.5773 17.6102C10.5773 15.3805 9.0831 13.3902 6.9436 12.7702C6.64858 12.6847 6.33953 12.8546 6.25403 13.1499C6.16846 13.4452 6.33842 13.7539 6.63366 13.8395C8.30017 14.3225 9.46407 15.8731 9.46407 17.6103C9.46407 19.7748 7.70308 21.5357 5.53864 21.5357C3.3742 21.5357 1.61328 19.7747 1.61328 17.6102C1.61328 15.8815 2.72107 14.3751 4.36991 13.8616C4.66337 13.7702 4.82725 13.4581 4.73589 13.1646C4.64445 12.8711 4.3328 12.7069 4.03882 12.7986C1.92211 13.4578 0.5 15.3914 0.5 17.6102C0.5 20.3886 2.76033 22.6489 5.53871 22.6489C8.31709 22.6489 10.5773 20.3886 10.5773 17.6102Z" fill="#58AEB6"/>
<path d="M11.3582 2.90889H15.5923L14.8133 3.68789C14.5959 3.90528 14.5959 4.25774 14.8133 4.47506C14.922 4.58371 15.0645 4.63811 15.2069 4.63811C15.3493 4.63811 15.4918 4.58379 15.6006 4.47506L17.3298 2.74583C17.5199 2.56103 17.5689 2.1929 17.3298 1.95867L15.6006 0.229446C15.3831 0.0120596 15.0307 0.0120596 14.8133 0.229446C14.5959 0.446833 14.5959 0.799298 14.8133 1.01661L15.5923 1.79561H11.3582C11.0507 1.79561 10.8015 2.04484 10.8015 2.35225C10.8015 2.65967 11.0507 2.90889 11.3582 2.90889Z" fill="#58AEB6"/>
</svg>
