<svg width="39" height="65" viewBox="0 0 39 65" fill="none" xmlns="http://www.w3.org/2000/svg">
<path d="M11.8388 44.955C11.8088 45.005 11.7755 45.0433 11.7388 45.07C11.7055 45.0933 11.6638 45.105 11.6138 45.105C11.5571 45.105 11.4905 45.0767 11.4138 45.02C11.3371 44.9633 11.2405 44.9017 11.1238 44.835C11.0105 44.765 10.8721 44.7017 10.7088 44.645C10.5488 44.5883 10.3538 44.56 10.1238 44.56C9.90712 44.56 9.71546 44.59 9.54879 44.65C9.38546 44.7067 9.24712 44.785 9.13379 44.885C9.02379 44.985 8.94046 45.1033 8.88379 45.24C8.82712 45.3733 8.79879 45.5183 8.79879 45.675C8.79879 45.875 8.84712 46.0417 8.94379 46.175C9.04379 46.305 9.17379 46.4167 9.33379 46.51C9.49712 46.6033 9.68046 46.685 9.88379 46.755C10.0905 46.8217 10.3005 46.8917 10.5138 46.965C10.7305 47.0383 10.9405 47.1217 11.1438 47.215C11.3505 47.305 11.5338 47.42 11.6938 47.56C11.8571 47.7 11.9871 47.8717 12.0838 48.075C12.1838 48.2783 12.2338 48.5283 12.2338 48.825C12.2338 49.1383 12.1805 49.4333 12.0738 49.71C11.9671 49.9833 11.8105 50.2217 11.6038 50.425C11.4005 50.6283 11.1488 50.7883 10.8488 50.905C10.5521 51.0217 10.2138 51.08 9.83379 51.08C9.36712 51.08 8.94379 50.9967 8.56379 50.83C8.18379 50.66 7.85879 50.4317 7.58879 50.145L7.86879 49.685C7.89546 49.6483 7.92712 49.6183 7.96379 49.595C8.00379 49.5683 8.04712 49.555 8.09379 49.555C8.13712 49.555 8.18546 49.5733 8.23879 49.61C8.29546 49.6433 8.35879 49.6867 8.42879 49.74C8.49879 49.7933 8.57879 49.8517 8.66879 49.915C8.75879 49.9783 8.86046 50.0367 8.97379 50.09C9.09046 50.1433 9.22212 50.1883 9.36879 50.225C9.51546 50.2583 9.68046 50.275 9.86379 50.275C10.0938 50.275 10.2988 50.2433 10.4788 50.18C10.6588 50.1167 10.8105 50.0283 10.9338 49.915C11.0605 49.7983 11.1571 49.66 11.2238 49.5C11.2905 49.34 11.3238 49.1617 11.3238 48.965C11.3238 48.7483 11.2738 48.5717 11.1738 48.435C11.0771 48.295 10.9488 48.1783 10.7888 48.085C10.6288 47.9917 10.4455 47.9133 10.2388 47.85C10.0321 47.7833 9.82212 47.7167 9.60879 47.65C9.39546 47.58 9.18546 47.5 8.97879 47.41C8.77212 47.32 8.58879 47.2033 8.42879 47.06C8.26879 46.9167 8.13879 46.7383 8.03879 46.525C7.94212 46.3083 7.89379 46.0417 7.89379 45.725C7.89379 45.4717 7.94212 45.2267 8.03879 44.99C8.13879 44.7533 8.28212 44.5433 8.46879 44.36C8.65879 44.1767 8.89046 44.03 9.16379 43.92C9.44046 43.81 9.75712 43.755 10.1138 43.755C10.5138 43.755 10.8771 43.8183 11.2038 43.945C11.5338 44.0717 11.8238 44.255 12.0738 44.495L11.8388 44.955ZM17.4608 45.935V51H16.9308C16.8042 51 16.7242 50.9383 16.6908 50.815L16.6208 50.27C16.4008 50.5133 16.1542 50.71 15.8808 50.86C15.6075 51.0067 15.2942 51.08 14.9408 51.08C14.6642 51.08 14.4192 51.035 14.2058 50.945C13.9958 50.8517 13.8192 50.7217 13.6758 50.555C13.5325 50.3883 13.4242 50.1867 13.3508 49.95C13.2808 49.7133 13.2458 49.4517 13.2458 49.165V45.935H14.1358V49.165C14.1358 49.5483 14.2225 49.845 14.3958 50.055C14.5725 50.265 14.8408 50.37 15.2008 50.37C15.4642 50.37 15.7092 50.3083 15.9358 50.185C16.1658 50.0583 16.3775 49.885 16.5708 49.665V45.935H17.4608ZM19.767 49.78C19.9303 50 20.1087 50.155 20.302 50.245C20.4953 50.335 20.712 50.38 20.952 50.38C21.4253 50.38 21.7887 50.2117 22.042 49.875C22.2953 49.5383 22.422 49.0583 22.422 48.435C22.422 48.105 22.392 47.8217 22.332 47.585C22.2753 47.3483 22.192 47.155 22.082 47.005C21.972 46.8517 21.837 46.74 21.677 46.67C21.517 46.6 21.3353 46.565 21.132 46.565C20.842 46.565 20.587 46.6317 20.367 46.765C20.1503 46.8983 19.9503 47.0867 19.767 47.33V49.78ZM19.722 46.72C19.9353 46.4567 20.182 46.245 20.462 46.085C20.742 45.925 21.062 45.845 21.422 45.845C21.7153 45.845 21.9803 45.9017 22.217 46.015C22.4537 46.125 22.6553 46.29 22.822 46.51C22.9887 46.7267 23.117 46.9967 23.207 47.32C23.297 47.6433 23.342 48.015 23.342 48.435C23.342 48.8083 23.292 49.1567 23.192 49.48C23.092 49.8 22.947 50.0783 22.757 50.315C22.5703 50.5483 22.3403 50.7333 22.067 50.87C21.797 51.0033 21.492 51.07 21.152 51.07C20.842 51.07 20.5753 51.0183 20.352 50.915C20.132 50.8083 19.937 50.6617 19.767 50.475V52.715H18.872V45.935H19.407C19.5337 45.935 19.612 45.9967 19.642 46.12L19.722 46.72ZM25.3725 49.78C25.5358 50 25.7141 50.155 25.9075 50.245C26.1008 50.335 26.3175 50.38 26.5575 50.38C27.0308 50.38 27.3941 50.2117 27.6475 49.875C27.9008 49.5383 28.0275 49.0583 28.0275 48.435C28.0275 48.105 27.9975 47.8217 27.9375 47.585C27.8808 47.3483 27.7975 47.155 27.6875 47.005C27.5775 46.8517 27.4425 46.74 27.2825 46.67C27.1225 46.6 26.9408 46.565 26.7375 46.565C26.4475 46.565 26.1925 46.6317 25.9725 46.765C25.7558 46.8983 25.5558 47.0867 25.3725 47.33V49.78ZM25.3275 46.72C25.5408 46.4567 25.7875 46.245 26.0675 46.085C26.3475 45.925 26.6675 45.845 27.0275 45.845C27.3208 45.845 27.5858 45.9017 27.8225 46.015C28.0591 46.125 28.2608 46.29 28.4275 46.51C28.5941 46.7267 28.7225 46.9967 28.8125 47.32C28.9025 47.6433 28.9475 48.015 28.9475 48.435C28.9475 48.8083 28.8975 49.1567 28.7975 49.48C28.6975 49.8 28.5525 50.0783 28.3625 50.315C28.1758 50.5483 27.9458 50.7333 27.6725 50.87C27.4025 51.0033 27.0975 51.07 26.7575 51.07C26.4475 51.07 26.1808 51.0183 25.9575 50.915C25.7375 50.8083 25.5425 50.6617 25.3725 50.475V52.715H24.4775V45.935H25.0125C25.1391 45.935 25.2175 45.9967 25.2475 46.12L25.3275 46.72ZM29.9329 50.45C29.9329 50.3633 29.9479 50.2817 29.9779 50.205C30.0113 50.1283 30.0546 50.0617 30.1079 50.005C30.1646 49.9483 30.2313 49.9033 30.3079 49.87C30.3846 49.8367 30.4663 49.82 30.5529 49.82C30.6396 49.82 30.7213 49.8367 30.7979 49.87C30.8746 49.9033 30.9413 49.9483 30.9979 50.005C31.0546 50.0617 31.0996 50.1283 31.1329 50.205C31.1663 50.2817 31.1829 50.3633 31.1829 50.45C31.1829 50.54 31.1663 50.6233 31.1329 50.7C31.0996 50.7733 31.0546 50.8383 30.9979 50.895C30.9413 50.9517 30.8746 50.995 30.7979 51.025C30.7213 51.0583 30.6396 51.075 30.5529 51.075C30.4663 51.075 30.3846 51.0583 30.3079 51.025C30.2313 50.995 30.1646 50.9517 30.1079 50.895C30.0546 50.8383 30.0113 50.7733 29.9779 50.7C29.9479 50.6233 29.9329 50.54 29.9329 50.45ZM17.7382 55.835V63H16.8882V57.735C16.8882 57.665 16.8898 57.59 16.8932 57.51C16.8998 57.43 16.9065 57.3483 16.9132 57.265L14.4532 61.745C14.3765 61.895 14.2598 61.97 14.1032 61.97H13.9632C13.8065 61.97 13.6898 61.895 13.6132 61.745L11.1032 57.245C11.1232 57.4217 11.1332 57.585 11.1332 57.735V63H10.2832V55.835H10.9982C11.0848 55.835 11.1515 55.8433 11.1982 55.86C11.2448 55.8767 11.2898 55.9233 11.3332 56L13.8082 60.41C13.8482 60.49 13.8865 60.5733 13.9232 60.66C13.9632 60.7467 13.9998 60.835 14.0332 60.925C14.0665 60.835 14.1015 60.7467 14.1382 60.66C14.1748 60.57 14.2148 60.485 14.2582 60.405L16.6882 56C16.7282 55.9233 16.7715 55.8767 16.8182 55.86C16.8682 55.8433 16.9365 55.835 17.0232 55.835H17.7382ZM20.9593 60.525C21.1393 60.525 21.2976 60.5 21.4343 60.45C21.5709 60.4 21.6859 60.33 21.7793 60.24C21.8726 60.15 21.9426 60.0433 21.9893 59.92C22.0359 59.7933 22.0593 59.655 22.0593 59.505C22.0593 59.195 21.9643 58.9483 21.7743 58.765C21.5876 58.5817 21.3159 58.49 20.9593 58.49C20.5993 58.49 20.3243 58.5817 20.1343 58.765C19.9476 58.9483 19.8543 59.195 19.8543 59.505C19.8543 59.655 19.8776 59.7933 19.9243 59.92C19.9743 60.0433 20.0459 60.15 20.1393 60.24C20.2326 60.33 20.3476 60.4 20.4843 60.45C20.6209 60.5 20.7793 60.525 20.9593 60.525ZM22.5643 63.275C22.5643 63.1517 22.5293 63.0517 22.4593 62.975C22.3893 62.8983 22.2943 62.8383 22.1743 62.795C22.0576 62.7517 21.9209 62.7217 21.7643 62.705C21.6076 62.685 21.4409 62.67 21.2643 62.66C21.0909 62.65 20.9143 62.64 20.7343 62.63C20.5543 62.62 20.3809 62.6033 20.2143 62.58C20.0276 62.6667 19.8743 62.7767 19.7543 62.91C19.6376 63.04 19.5793 63.1933 19.5793 63.37C19.5793 63.4833 19.6076 63.5883 19.6643 63.685C19.7243 63.785 19.8143 63.87 19.9343 63.94C20.0543 64.0133 20.2043 64.07 20.3843 64.11C20.5676 64.1533 20.7826 64.175 21.0293 64.175C21.2693 64.175 21.4843 64.1533 21.6743 64.11C21.8643 64.0667 22.0243 64.005 22.1543 63.925C22.2876 63.845 22.3893 63.75 22.4593 63.64C22.5293 63.53 22.5643 63.4083 22.5643 63.275ZM23.4693 58.135V58.465C23.4693 58.575 23.3993 58.645 23.2593 58.675L22.6843 58.75C22.7976 58.97 22.8543 59.2133 22.8543 59.48C22.8543 59.7267 22.8059 59.9517 22.7093 60.155C22.6159 60.355 22.4859 60.5267 22.3193 60.67C22.1526 60.8133 21.9526 60.9233 21.7193 61C21.4859 61.0767 21.2326 61.115 20.9593 61.115C20.7226 61.115 20.4993 61.0867 20.2893 61.03C20.1826 61.0967 20.1009 61.1683 20.0443 61.245C19.9876 61.3183 19.9593 61.3933 19.9593 61.47C19.9593 61.59 20.0076 61.6817 20.1043 61.745C20.2043 61.805 20.3343 61.8483 20.4943 61.875C20.6543 61.9017 20.8359 61.9183 21.0393 61.925C21.2459 61.9317 21.4559 61.9433 21.6693 61.96C21.8859 61.9733 22.0959 61.9983 22.2993 62.035C22.5059 62.0717 22.6893 62.1317 22.8493 62.215C23.0093 62.2983 23.1376 62.4133 23.2343 62.56C23.3343 62.7067 23.3843 62.8967 23.3843 63.13C23.3843 63.3467 23.3293 63.5567 23.2193 63.76C23.1126 63.9633 22.9576 64.1433 22.7543 64.3C22.5509 64.46 22.3009 64.5867 22.0043 64.68C21.7109 64.7767 21.3793 64.825 21.0093 64.825C20.6393 64.825 20.3159 64.7883 20.0393 64.715C19.7626 64.6417 19.5326 64.5433 19.3493 64.42C19.1659 64.2967 19.0276 64.1533 18.9343 63.99C18.8443 63.83 18.7993 63.6617 18.7993 63.485C18.7993 63.235 18.8776 63.0233 19.0343 62.85C19.1909 62.6767 19.4059 62.5383 19.6793 62.435C19.5293 62.3683 19.4093 62.28 19.3193 62.17C19.2326 62.0567 19.1893 61.905 19.1893 61.715C19.1893 61.6417 19.2026 61.5667 19.2293 61.49C19.2559 61.41 19.2959 61.3317 19.3493 61.255C19.4059 61.175 19.4743 61.1 19.5543 61.03C19.6343 60.96 19.7276 60.8983 19.8343 60.845C19.5843 60.705 19.3893 60.52 19.2493 60.29C19.1093 60.0567 19.0393 59.7867 19.0393 59.48C19.0393 59.2333 19.0859 59.01 19.1793 58.81C19.2759 58.6067 19.4093 58.435 19.5793 58.295C19.7493 58.1517 19.9509 58.0417 20.1843 57.965C20.4209 57.8883 20.6793 57.85 20.9593 57.85C21.1793 57.85 21.3843 57.875 21.5743 57.925C21.7643 57.9717 21.9376 58.0417 22.0943 58.135H23.4693ZM25.9446 63.08C25.5446 63.08 25.2362 62.9683 25.0196 62.745C24.8062 62.5217 24.6996 62.2 24.6996 61.78V58.68H24.0896C24.0362 58.68 23.9912 58.665 23.9546 58.635C23.9179 58.6017 23.8996 58.5517 23.8996 58.485V58.13L24.7296 58.025L24.9346 56.46C24.9446 56.41 24.9662 56.37 24.9996 56.34C25.0362 56.3067 25.0829 56.29 25.1396 56.29H25.5896V58.035H27.0546V58.68H25.5896V61.72C25.5896 61.9333 25.6412 62.0917 25.7446 62.195C25.8479 62.2983 25.9812 62.35 26.1446 62.35C26.2379 62.35 26.3179 62.3383 26.3846 62.315C26.4546 62.2883 26.5146 62.26 26.5646 62.23C26.6146 62.2 26.6562 62.1733 26.6896 62.15C26.7262 62.1233 26.7579 62.11 26.7846 62.11C26.8312 62.11 26.8729 62.1383 26.9096 62.195L27.1696 62.62C27.0162 62.7633 26.8312 62.8767 26.6146 62.96C26.3979 63.04 26.1746 63.08 25.9446 63.08ZM27.8236 62.45C27.8236 62.3633 27.8386 62.2817 27.8686 62.205C27.9019 62.1283 27.9452 62.0617 27.9986 62.005C28.0552 61.9483 28.1219 61.9033 28.1986 61.87C28.2752 61.8367 28.3569 61.82 28.4436 61.82C28.5302 61.82 28.6119 61.8367 28.6886 61.87C28.7652 61.9033 28.8319 61.9483 28.8886 62.005C28.9452 62.0617 28.9902 62.1283 29.0236 62.205C29.0569 62.2817 29.0736 62.3633 29.0736 62.45C29.0736 62.54 29.0569 62.6233 29.0236 62.7C28.9902 62.7733 28.9452 62.8383 28.8886 62.895C28.8319 62.9517 28.7652 62.995 28.6886 63.025C28.6119 63.0583 28.5302 63.075 28.4436 63.075C28.3569 63.075 28.2752 63.0583 28.1986 63.025C28.1219 62.995 28.0552 62.9517 27.9986 62.895C27.9452 62.8383 27.9019 62.7733 27.8686 62.7C27.8386 62.6233 27.8236 62.54 27.8236 62.45Z" fill="#58AEB6"/>
<path d="M26.8263 24.1642L27.6973 23.2932C27.9098 23.0807 28.0268 22.7982 28.0268 22.4977C28.0268 22.1971 27.9098 21.9146 27.6974 21.7021L26.8883 20.8931C27.1671 20.407 27.381 19.8909 27.5275 19.3511H28.6712C29.2915 19.3511 29.7962 18.8464 29.7962 18.226V16.9942C29.7962 16.3738 29.2915 15.8691 28.6712 15.8691H27.5275C27.3809 15.3292 27.1671 14.8132 26.8883 14.3271L27.6973 13.5181C27.9098 13.3056 28.0268 13.023 28.0268 12.7225C28.0268 12.422 27.9098 12.1395 27.6973 11.927L26.8263 11.0559C26.3877 10.6174 25.6739 10.6172 25.2352 11.0559L24.4262 11.8649C23.9401 11.5862 23.4241 11.3723 22.8842 11.2258V10.0821C22.8842 9.46179 22.3794 8.95703 21.7591 8.95703H20.5273C19.907 8.95703 19.4022 9.46172 19.4022 10.0821V11.2258C18.8623 11.3724 18.3462 11.5862 17.8603 11.8649L17.0513 11.056C16.8389 10.8434 16.5563 10.7264 16.2557 10.7264C15.9552 10.7264 15.6727 10.8434 15.4601 11.0559L14.5892 11.9269C14.3767 12.1394 14.2597 12.4219 14.2597 12.7224C14.2597 13.023 14.3767 13.3055 14.5891 13.518L15.3981 14.327C15.1194 14.813 14.9055 15.329 14.759 15.869H13.6153C12.995 15.869 12.4902 16.3737 12.4902 16.9941V18.2259C12.4902 18.8463 12.995 19.351 13.6153 19.351H14.759C14.9056 19.8909 15.1194 20.407 15.3981 20.893L14.5892 21.702C14.3767 21.9145 14.2597 22.1971 14.2597 22.4976C14.2597 22.7981 14.3767 23.0806 14.5891 23.2931L15.4601 24.1642C15.6726 24.3766 15.9552 24.4937 16.2557 24.4937C16.5563 24.4937 16.8388 24.3766 17.0513 24.1642L17.8603 23.3552C18.3463 23.6339 18.8623 23.8478 19.4022 23.9943V25.138C19.4022 25.7583 19.907 26.2631 20.5273 26.2631H21.7591C22.3794 26.2631 22.8842 25.7584 22.8842 25.138V23.9943C23.4241 23.8477 23.9402 23.6339 24.4262 23.3552L25.2352 24.1642C25.6739 24.6028 26.3877 24.6029 26.8263 24.1642ZM24.1985 22.1871C23.5953 22.5907 22.9293 22.8667 22.2193 23.0074C21.9587 23.059 21.7709 23.2877 21.7709 23.5534V25.1381C21.7709 25.1445 21.7656 25.1499 21.7591 25.1499H20.5273C20.5208 25.1499 20.5155 25.1446 20.5155 25.1381V23.5534C20.5155 23.2877 20.3277 23.059 20.0671 23.0074C19.3571 22.8667 18.6911 22.5906 18.0879 22.1871C17.9936 22.124 17.8857 22.0932 17.7785 22.0932C17.6349 22.0932 17.4924 22.1486 17.3848 22.2562L16.2639 23.3771C16.26 23.3809 16.2512 23.3809 16.2473 23.377L15.3762 22.506C15.3723 22.502 15.3723 22.4933 15.3763 22.4893L16.4971 21.3685C16.6849 21.1806 16.7138 20.8862 16.5661 20.6653C16.1626 20.0622 15.8866 19.3963 15.7458 18.6861C15.6943 18.4255 15.4656 18.2377 15.1999 18.2377H13.6152C13.6087 18.2377 13.6034 18.2324 13.6034 18.2259V16.9941C13.6034 16.9876 13.6087 16.9823 13.6152 16.9823H15.1999C15.4656 16.9823 15.6943 16.7945 15.7458 16.5339C15.8866 15.8238 16.1626 15.1579 16.5661 14.5547C16.7138 14.3338 16.685 14.0395 16.4971 13.8515L15.3762 12.7307C15.3723 12.7268 15.3723 12.718 15.3763 12.7141L16.2473 11.843C16.2512 11.8392 16.26 11.8391 16.2639 11.843L17.3848 12.9638C17.5726 13.1517 17.8672 13.1805 18.0879 13.0329C18.6911 12.6293 19.3571 12.3534 20.0671 12.2126C20.3277 12.161 20.5155 11.9323 20.5155 11.6666V10.082C20.5155 10.0756 20.5208 10.0702 20.5273 10.0702H21.7591C21.7656 10.0702 21.7709 10.0755 21.7709 10.082V11.6667C21.7709 11.9324 21.9587 12.1611 22.2193 12.2127C22.9293 12.3534 23.5953 12.6294 24.1985 13.033C24.4194 13.1806 24.7138 13.1519 24.9016 12.9639L26.0225 11.8431C26.0271 11.8384 26.0346 11.8386 26.0392 11.8431L26.9103 12.7141C26.9142 12.7181 26.9142 12.7268 26.9102 12.7308L25.7893 13.8516C25.6015 14.0395 25.5726 14.3339 25.7203 14.5548C26.1239 15.1581 26.3999 15.824 26.5405 16.5339C26.5922 16.7945 26.8208 16.9823 27.0865 16.9823H28.6713C28.6777 16.9823 28.683 16.9876 28.683 16.9941V18.2259C28.683 18.2324 28.6777 18.2377 28.6713 18.2377H27.0865C26.8208 18.2377 26.5922 18.4256 26.5405 18.6861C26.3999 19.396 26.124 20.0619 25.7203 20.6653C25.5726 20.8861 25.6014 21.1805 25.7893 21.3684L26.9103 22.4893C26.9142 22.4932 26.9142 22.502 26.9103 22.5059L26.0392 23.3769C26.0346 23.3815 26.027 23.3814 26.0225 23.3769L24.9016 22.2561C24.7138 22.0683 24.4191 22.0394 24.1985 22.1871Z" fill="#58AEB6"/>
<path d="M21.1435 15.6807C21.832 15.6807 22.4734 16.052 22.8173 16.6497C22.9706 16.9161 23.3109 17.0078 23.5774 16.8545C23.8439 16.7012 23.9356 16.3609 23.7823 16.0944C23.2403 15.1525 22.2291 14.5674 21.1435 14.5674C19.4657 14.5674 18.1007 15.9323 18.1007 17.6101C18.1007 19.2879 19.4657 20.6529 21.1435 20.6529C22.2164 20.6529 23.1894 20.1047 23.7464 19.1865C23.9058 18.9236 23.8221 18.5813 23.5592 18.4219C23.2963 18.2624 22.9539 18.3462 22.7946 18.6091C22.4411 19.1918 21.8239 19.5397 21.1435 19.5397C20.0795 19.5397 19.214 18.6741 19.214 17.6102C19.214 16.5463 20.0795 15.6807 21.1435 15.6807Z" fill="#58AEB6"/>
<path d="M25.7766 4.58543C29.5846 5.94437 32.6007 8.88923 34.0516 12.6649C34.2076 13.0708 34.6052 13.3435 35.0411 13.3435H36.3187C36.6622 13.3435 36.9859 13.1762 37.1847 12.896C37.3836 12.6157 37.4344 12.2549 37.3209 11.9307C36.4702 9.50131 35.1041 7.33509 33.2605 5.49223C31.323 3.55475 29.0368 2.14823 26.4655 1.31171C26.1425 1.20662 25.786 1.26303 25.5114 1.46238C25.2374 1.66136 25.0739 1.98236 25.0739 2.32094V3.58711C25.0739 4.03413 25.3562 4.43543 25.7766 4.58543ZM26.1871 2.39189C28.5632 3.17609 30.6777 4.48375 32.4732 6.27932C32.4733 6.27932 32.4733 6.2794 32.4734 6.2794C34.1804 7.98576 35.4496 9.98766 36.2461 12.2301H35.0772C33.5091 8.17984 30.2723 5.01953 26.1871 3.54993V2.39189Z" fill="#58AEB6"/>
<path d="M36.5373 21.2041H35.2812C34.8226 21.2041 34.4178 21.4969 34.274 21.9326C32.9459 25.9557 29.7698 29.2083 25.7779 30.6332C25.3568 30.7836 25.0739 31.185 25.0739 31.6321V32.8982C25.0882 33.5289 25.7014 34.1467 26.4655 33.9075C29.0369 33.0709 31.323 31.6644 33.2606 29.7269C35.2637 27.7238 36.7485 25.2495 37.5541 22.5717C37.6518 22.247 37.5918 21.9047 37.3894 21.6324C37.1869 21.3602 36.8764 21.2041 36.5373 21.2041ZM32.4732 28.9398C30.6777 30.7353 28.5631 32.0429 26.1871 32.8272V31.6692C30.4717 30.1276 33.8814 26.6359 35.3193 22.3174H36.4679C35.7105 24.7941 34.3303 27.0827 32.4732 28.9398Z" fill="#58AEB6"/>
<path d="M16.5086 30.6332C13.1609 29.4382 10.4275 27.03 8.81207 23.852C8.5722 23.3801 8.01615 23.1545 7.51814 23.3275C7.18965 23.4416 6.84899 23.5274 6.50558 23.5827C6.17003 23.6366 5.88771 23.8404 5.73088 24.1417C5.5748 24.4417 5.56998 24.7881 5.71745 25.0918C6.54788 26.8025 7.66109 28.362 9.02597 29.7269C10.9635 31.6644 13.2496 33.0709 15.821 33.9075C16.3785 34.1205 17.2286 33.6582 17.2127 32.8982V31.6321C17.2129 31.1848 16.9298 30.7834 16.5086 30.6332ZM16.0996 32.8271C13.7236 32.0429 11.6089 30.7353 9.81343 28.9397C8.55364 27.6799 7.52349 26.2439 6.7508 24.6704C7.11959 24.6073 7.48512 24.5146 7.83907 24.3944C9.58076 27.7975 12.5119 30.3787 16.0996 31.6692V32.8271Z" fill="#58AEB6"/>
<path d="M20.2729 4.70435H22.2012C22.9665 4.70435 23.5892 4.08173 23.5892 3.31639V1.38796C23.5892 0.622621 22.9665 0 22.2012 0H20.2729C19.5075 0 18.8849 0.622621 18.8849 1.38796V3.31632C18.8849 4.08173 19.5076 4.70435 20.2729 4.70435ZM19.9982 1.38796C19.9982 1.23648 20.1214 1.11328 20.2729 1.11328H22.2012C22.3527 1.11328 22.4759 1.23648 22.4759 1.38796V3.31632C22.4759 3.4678 22.3527 3.591 22.2012 3.591H20.2729C20.1214 3.591 19.9982 3.4678 19.9982 3.31632V1.38796Z" fill="#58AEB6"/>
<path d="M22.2012 30.5146H20.2729C19.5075 30.5146 18.8849 31.1373 18.8849 31.9026V33.831C18.8849 34.5963 19.5076 35.2189 20.2729 35.2189H22.2012C22.9665 35.2189 23.5892 34.5963 23.5892 33.831V31.9026C23.5892 31.1373 22.9665 30.5146 22.2012 30.5146ZM22.4759 33.831C22.4759 33.9825 22.3527 34.1057 22.2012 34.1057H20.2729C20.1214 34.1057 19.9982 33.9825 19.9982 33.831V31.9027C19.9982 31.7512 20.1214 31.628 20.2729 31.628H22.2012C22.3527 31.628 22.4759 31.7512 22.4759 31.9027V33.831Z" fill="#58AEB6"/>
<path d="M37.112 14.7979H35.1836C34.4183 14.7979 33.7957 15.4205 33.7957 16.1859V18.1142C33.7957 18.8796 34.4183 19.5023 35.1836 19.5023H37.112C37.8773 19.5023 38.4999 18.8796 38.4999 18.1142V16.1859C38.4999 15.4205 37.8772 14.7979 37.112 14.7979ZM37.3867 18.1142C37.3867 18.2656 37.2635 18.3889 37.112 18.3889H35.1836C35.0321 18.3889 34.9089 18.2656 34.9089 18.1142V16.1858C34.9089 16.0343 35.0321 15.9111 35.1836 15.9111H37.112C37.2635 15.9111 37.3867 16.0343 37.3867 16.1858V18.1142Z" fill="#58AEB6"/>
<path d="M3.7079 17.2717C3.49044 17.4891 3.49044 17.8414 3.70783 18.0588L4.62881 18.9799C4.73324 19.0843 4.87477 19.1429 5.02247 19.1429C5.17016 19.1429 5.31162 19.0843 5.41612 18.9799L7.36964 17.0264C7.58702 16.809 7.58702 16.4565 7.36964 16.2392C7.15217 16.0218 6.79978 16.0218 6.5824 16.2392L5.02247 17.7991L4.49514 17.2717C4.27768 17.0543 3.92522 17.0542 3.7079 17.2717Z" fill="#58AEB6"/>
<path d="M10.5773 17.6102C10.5773 15.3805 9.0831 13.3902 6.9436 12.7702C6.64858 12.6847 6.33953 12.8546 6.25403 13.1499C6.16846 13.4452 6.33842 13.7539 6.63366 13.8395C8.30017 14.3225 9.46407 15.8731 9.46407 17.6103C9.46407 19.7748 7.70308 21.5357 5.53864 21.5357C3.3742 21.5357 1.61328 19.7747 1.61328 17.6102C1.61328 15.8815 2.72107 14.3751 4.36991 13.8616C4.66337 13.7702 4.82725 13.4581 4.73589 13.1646C4.64445 12.8711 4.3328 12.7069 4.03882 12.7986C1.92211 13.4578 0.5 15.3914 0.5 17.6102C0.5 20.3886 2.76033 22.6489 5.53871 22.6489C8.31709 22.6489 10.5773 20.3886 10.5773 17.6102Z" fill="#58AEB6"/>
<path d="M11.3582 2.90889H15.5923L14.8133 3.68789C14.5959 3.90528 14.5959 4.25774 14.8133 4.47506C14.922 4.58371 15.0645 4.63811 15.2069 4.63811C15.3493 4.63811 15.4918 4.58379 15.6006 4.47506L17.3298 2.74583C17.5199 2.56103 17.5689 2.1929 17.3298 1.95867L15.6006 0.229446C15.3831 0.0120596 15.0307 0.0120596 14.8133 0.229446C14.5959 0.446833 14.5959 0.799298 14.8133 1.01661L15.5923 1.79561H11.3582C11.0507 1.79561 10.8015 2.04484 10.8015 2.35225C10.8015 2.65967 11.0507 2.90889 11.3582 2.90889Z" fill="#58AEB6"/>
</svg>
