<svg width="39" height="53" viewBox="0 0 39 53" fill="none" xmlns="http://www.w3.org/2000/svg">
<path d="M12.7177 44.955C12.6877 45.005 12.6544 45.0433 12.6177 45.07C12.5844 45.0933 12.5427 45.105 12.4927 45.105C12.436 45.105 12.3694 45.0767 12.2927 45.02C12.216 44.9633 12.1194 44.9017 12.0027 44.835C11.8894 44.765 11.751 44.7017 11.5877 44.645C11.4277 44.5883 11.2327 44.56 11.0027 44.56C10.786 44.56 10.5944 44.59 10.4277 44.65C10.2644 44.7067 10.126 44.785 10.0127 44.885C9.9027 44.985 9.81936 45.1033 9.7627 45.24C9.70603 45.3733 9.6777 45.5183 9.6777 45.675C9.6777 45.875 9.72603 46.0417 9.8227 46.175C9.9227 46.305 10.0527 46.4167 10.2127 46.51C10.376 46.6033 10.5594 46.685 10.7627 46.755C10.9694 46.8217 11.1794 46.8917 11.3927 46.965C11.6094 47.0383 11.8194 47.1217 12.0227 47.215C12.2294 47.305 12.4127 47.42 12.5727 47.56C12.736 47.7 12.866 47.8717 12.9627 48.075C13.0627 48.2783 13.1127 48.5283 13.1127 48.825C13.1127 49.1383 13.0594 49.4333 12.9527 49.71C12.846 49.9833 12.6894 50.2217 12.4827 50.425C12.2794 50.6283 12.0277 50.7883 11.7277 50.905C11.431 51.0217 11.0927 51.08 10.7127 51.08C10.246 51.08 9.8227 50.9967 9.4427 50.83C9.0627 50.66 8.7377 50.4317 8.4677 50.145L8.7477 49.685C8.77436 49.6483 8.80603 49.6183 8.8427 49.595C8.8827 49.5683 8.92603 49.555 8.9727 49.555C9.01603 49.555 9.06436 49.5733 9.1177 49.61C9.17436 49.6433 9.2377 49.6867 9.3077 49.74C9.3777 49.7933 9.4577 49.8517 9.5477 49.915C9.6377 49.9783 9.73936 50.0367 9.8527 50.09C9.96936 50.1433 10.101 50.1883 10.2477 50.225C10.3944 50.2583 10.5594 50.275 10.7427 50.275C10.9727 50.275 11.1777 50.2433 11.3577 50.18C11.5377 50.1167 11.6894 50.0283 11.8127 49.915C11.9394 49.7983 12.036 49.66 12.1027 49.5C12.1694 49.34 12.2027 49.1617 12.2027 48.965C12.2027 48.7483 12.1527 48.5717 12.0527 48.435C11.956 48.295 11.8277 48.1783 11.6677 48.085C11.5077 47.9917 11.3244 47.9133 11.1177 47.85C10.911 47.7833 10.701 47.7167 10.4877 47.65C10.2744 47.58 10.0644 47.5 9.8577 47.41C9.65103 47.32 9.4677 47.2033 9.3077 47.06C9.1477 46.9167 9.0177 46.7383 8.9177 46.525C8.82103 46.3083 8.7727 46.0417 8.7727 45.725C8.7727 45.4717 8.82103 45.2267 8.9177 44.99C9.0177 44.7533 9.16103 44.5433 9.3477 44.36C9.5377 44.1767 9.76936 44.03 10.0427 43.92C10.3194 43.81 10.636 43.755 10.9927 43.755C11.3927 43.755 11.756 43.8183 12.0827 43.945C12.4127 44.0717 12.7027 44.255 12.9527 44.495L12.7177 44.955ZM15.0324 47.42C15.0324 47.86 15.0924 48.255 15.2124 48.605C15.3324 48.9517 15.5024 49.2467 15.7224 49.49C15.9457 49.73 16.214 49.915 16.5274 50.045C16.8407 50.1717 17.189 50.235 17.5724 50.235C17.959 50.235 18.309 50.1717 18.6224 50.045C18.9357 49.915 19.2024 49.73 19.4224 49.49C19.6424 49.2467 19.8124 48.9517 19.9324 48.605C20.0524 48.255 20.1124 47.86 20.1124 47.42C20.1124 46.98 20.0524 46.585 19.9324 46.235C19.8124 45.885 19.6424 45.59 19.4224 45.35C19.2024 45.1067 18.9357 44.92 18.6224 44.79C18.309 44.66 17.959 44.595 17.5724 44.595C17.189 44.595 16.8407 44.66 16.5274 44.79C16.214 44.92 15.9457 45.1067 15.7224 45.35C15.5024 45.59 15.3324 45.885 15.2124 46.235C15.0924 46.585 15.0324 46.98 15.0324 47.42ZM21.4374 52.48H20.6374C20.5174 52.48 20.4107 52.4633 20.3174 52.43C20.224 52.3967 20.139 52.3383 20.0624 52.255L18.8074 50.885C18.4274 51.0117 18.0157 51.075 17.5724 51.075C17.0457 51.075 16.5657 50.9867 16.1324 50.81C15.699 50.63 15.3274 50.3783 15.0174 50.055C14.7074 49.7317 14.4674 49.3467 14.2974 48.9C14.1274 48.45 14.0424 47.9567 14.0424 47.42C14.0424 46.8833 14.1274 46.3917 14.2974 45.945C14.4674 45.495 14.7074 45.1083 15.0174 44.785C15.3274 44.4583 15.699 44.205 16.1324 44.025C16.5657 43.845 17.0457 43.755 17.5724 43.755C18.099 43.755 18.579 43.845 19.0124 44.025C19.449 44.205 19.8224 44.4583 20.1324 44.785C20.4424 45.1083 20.6824 45.495 20.8524 45.945C21.0224 46.3917 21.1074 46.8833 21.1074 47.42C21.1074 47.7567 21.0724 48.0767 21.0024 48.38C20.9357 48.6833 20.8374 48.9667 20.7074 49.23C20.5774 49.49 20.419 49.7267 20.2324 49.94C20.0457 50.1533 19.8357 50.3383 19.6024 50.495L21.4374 52.48ZM29.9452 43.835V51H29.0952V45.735C29.0952 45.665 29.0969 45.59 29.1002 45.51C29.1069 45.43 29.1135 45.3483 29.1202 45.265L26.6602 49.745C26.5835 49.895 26.4669 49.97 26.3102 49.97H26.1702C26.0135 49.97 25.8969 49.895 25.8202 49.745L23.3102 45.245C23.3302 45.4217 23.3402 45.585 23.3402 45.735V51H22.4902V43.835H23.2052C23.2919 43.835 23.3585 43.8433 23.4052 43.86C23.4519 43.8767 23.4969 43.9233 23.5402 44L26.0152 48.41C26.0552 48.49 26.0935 48.5733 26.1302 48.66C26.1702 48.7467 26.2069 48.835 26.2402 48.925C26.2735 48.835 26.3085 48.7467 26.3452 48.66C26.3819 48.57 26.4219 48.485 26.4652 48.405L28.8952 44C28.9352 43.9233 28.9785 43.8767 29.0252 43.86C29.0752 43.8433 29.1435 43.835 29.2302 43.835H29.9452Z" fill="#58AEB6"/>
<path d="M26.8263 24.1642L27.6973 23.2932C27.9098 23.0807 28.0268 22.7982 28.0268 22.4977C28.0268 22.1971 27.9098 21.9146 27.6974 21.7021L26.8883 20.8931C27.1671 20.407 27.381 19.8909 27.5275 19.3511H28.6712C29.2915 19.3511 29.7962 18.8464 29.7962 18.226V16.9942C29.7962 16.3738 29.2915 15.8691 28.6712 15.8691H27.5275C27.3809 15.3292 27.1671 14.8132 26.8883 14.3271L27.6973 13.5181C27.9098 13.3056 28.0268 13.023 28.0268 12.7225C28.0268 12.422 27.9098 12.1395 27.6973 11.927L26.8263 11.0559C26.3877 10.6174 25.6739 10.6172 25.2352 11.0559L24.4262 11.8649C23.9401 11.5862 23.4241 11.3723 22.8842 11.2258V10.0821C22.8842 9.46179 22.3794 8.95703 21.7591 8.95703H20.5273C19.907 8.95703 19.4022 9.46172 19.4022 10.0821V11.2258C18.8623 11.3724 18.3462 11.5862 17.8603 11.8649L17.0513 11.056C16.8389 10.8434 16.5563 10.7264 16.2557 10.7264C15.9552 10.7264 15.6727 10.8434 15.4601 11.0559L14.5892 11.9269C14.3767 12.1394 14.2597 12.4219 14.2597 12.7224C14.2597 13.023 14.3767 13.3055 14.5891 13.518L15.3981 14.327C15.1194 14.813 14.9055 15.329 14.759 15.869H13.6153C12.995 15.869 12.4902 16.3737 12.4902 16.9941V18.2259C12.4902 18.8463 12.995 19.351 13.6153 19.351H14.759C14.9056 19.8909 15.1194 20.407 15.3981 20.893L14.5892 21.702C14.3767 21.9145 14.2597 22.1971 14.2597 22.4976C14.2597 22.7981 14.3767 23.0806 14.5891 23.2931L15.4601 24.1642C15.6726 24.3766 15.9552 24.4937 16.2557 24.4937C16.5563 24.4937 16.8388 24.3766 17.0513 24.1642L17.8603 23.3552C18.3463 23.6339 18.8623 23.8478 19.4022 23.9943V25.138C19.4022 25.7583 19.907 26.2631 20.5273 26.2631H21.7591C22.3794 26.2631 22.8842 25.7584 22.8842 25.138V23.9943C23.4241 23.8477 23.9402 23.6339 24.4262 23.3552L25.2352 24.1642C25.6739 24.6028 26.3877 24.6029 26.8263 24.1642ZM24.1985 22.1871C23.5953 22.5907 22.9293 22.8667 22.2193 23.0074C21.9587 23.059 21.7709 23.2877 21.7709 23.5534V25.1381C21.7709 25.1445 21.7656 25.1499 21.7591 25.1499H20.5273C20.5208 25.1499 20.5155 25.1446 20.5155 25.1381V23.5534C20.5155 23.2877 20.3277 23.059 20.0671 23.0074C19.3571 22.8667 18.6911 22.5906 18.0879 22.1871C17.9936 22.124 17.8857 22.0932 17.7785 22.0932C17.6349 22.0932 17.4924 22.1486 17.3848 22.2562L16.2639 23.3771C16.26 23.3809 16.2512 23.3809 16.2473 23.377L15.3762 22.506C15.3723 22.502 15.3723 22.4933 15.3763 22.4893L16.4971 21.3685C16.6849 21.1806 16.7138 20.8862 16.5661 20.6653C16.1626 20.0622 15.8866 19.3963 15.7458 18.6861C15.6943 18.4255 15.4656 18.2377 15.1999 18.2377H13.6152C13.6087 18.2377 13.6034 18.2324 13.6034 18.2259V16.9941C13.6034 16.9876 13.6087 16.9823 13.6152 16.9823H15.1999C15.4656 16.9823 15.6943 16.7945 15.7458 16.5339C15.8866 15.8238 16.1626 15.1579 16.5661 14.5547C16.7138 14.3338 16.685 14.0395 16.4971 13.8515L15.3762 12.7307C15.3723 12.7268 15.3723 12.718 15.3763 12.7141L16.2473 11.843C16.2512 11.8392 16.26 11.8391 16.2639 11.843L17.3848 12.9638C17.5726 13.1517 17.8672 13.1805 18.0879 13.0329C18.6911 12.6293 19.3571 12.3534 20.0671 12.2126C20.3277 12.161 20.5155 11.9323 20.5155 11.6666V10.082C20.5155 10.0756 20.5208 10.0702 20.5273 10.0702H21.7591C21.7656 10.0702 21.7709 10.0755 21.7709 10.082V11.6667C21.7709 11.9324 21.9587 12.1611 22.2193 12.2127C22.9293 12.3534 23.5953 12.6294 24.1985 13.033C24.4194 13.1806 24.7138 13.1519 24.9016 12.9639L26.0225 11.8431C26.0271 11.8384 26.0346 11.8386 26.0392 11.8431L26.9103 12.7141C26.9142 12.7181 26.9142 12.7268 26.9102 12.7308L25.7893 13.8516C25.6015 14.0395 25.5726 14.3339 25.7203 14.5548C26.1239 15.1581 26.3999 15.824 26.5405 16.5339C26.5922 16.7945 26.8208 16.9823 27.0865 16.9823H28.6713C28.6777 16.9823 28.683 16.9876 28.683 16.9941V18.2259C28.683 18.2324 28.6777 18.2377 28.6713 18.2377H27.0865C26.8208 18.2377 26.5922 18.4256 26.5405 18.6861C26.3999 19.396 26.124 20.0619 25.7203 20.6653C25.5726 20.8861 25.6014 21.1805 25.7893 21.3684L26.9103 22.4893C26.9142 22.4932 26.9142 22.502 26.9103 22.5059L26.0392 23.3769C26.0346 23.3815 26.027 23.3814 26.0225 23.3769L24.9016 22.2561C24.7138 22.0683 24.4191 22.0394 24.1985 22.1871Z" fill="#58AEB6"/>
<path d="M21.1435 15.6807C21.832 15.6807 22.4734 16.052 22.8173 16.6497C22.9706 16.9161 23.3109 17.0078 23.5774 16.8545C23.8439 16.7012 23.9356 16.3609 23.7823 16.0944C23.2403 15.1525 22.2291 14.5674 21.1435 14.5674C19.4657 14.5674 18.1007 15.9323 18.1007 17.6101C18.1007 19.2879 19.4657 20.6529 21.1435 20.6529C22.2164 20.6529 23.1894 20.1047 23.7464 19.1865C23.9058 18.9236 23.8221 18.5813 23.5592 18.4219C23.2963 18.2624 22.9539 18.3462 22.7946 18.6091C22.4411 19.1918 21.8239 19.5397 21.1435 19.5397C20.0795 19.5397 19.214 18.6741 19.214 17.6102C19.214 16.5463 20.0795 15.6807 21.1435 15.6807Z" fill="#58AEB6"/>
<path d="M25.7766 4.58543C29.5846 5.94437 32.6007 8.88923 34.0516 12.6649C34.2076 13.0708 34.6052 13.3435 35.0411 13.3435H36.3187C36.6622 13.3435 36.9859 13.1762 37.1847 12.896C37.3836 12.6157 37.4344 12.2549 37.3209 11.9307C36.4702 9.50131 35.1041 7.33509 33.2605 5.49223C31.323 3.55475 29.0368 2.14823 26.4655 1.31171C26.1425 1.20662 25.786 1.26303 25.5114 1.46238C25.2374 1.66136 25.0739 1.98236 25.0739 2.32094V3.58711C25.0739 4.03413 25.3562 4.43543 25.7766 4.58543ZM26.1871 2.39189C28.5632 3.17609 30.6777 4.48375 32.4732 6.27932C32.4733 6.27932 32.4733 6.2794 32.4734 6.2794C34.1804 7.98576 35.4496 9.98766 36.2461 12.2301H35.0772C33.5091 8.17984 30.2723 5.01953 26.1871 3.54993V2.39189Z" fill="#58AEB6"/>
<path d="M36.5373 21.2041H35.2812C34.8226 21.2041 34.4178 21.4969 34.274 21.9326C32.9459 25.9557 29.7698 29.2083 25.7779 30.6332C25.3568 30.7836 25.0739 31.185 25.0739 31.6321V32.8982C25.0882 33.5289 25.7014 34.1467 26.4655 33.9075C29.0369 33.0709 31.323 31.6644 33.2606 29.7269C35.2637 27.7238 36.7485 25.2495 37.5541 22.5717C37.6518 22.247 37.5918 21.9047 37.3894 21.6324C37.1869 21.3602 36.8764 21.2041 36.5373 21.2041ZM32.4732 28.9398C30.6777 30.7353 28.5631 32.0429 26.1871 32.8272V31.6692C30.4717 30.1276 33.8814 26.6359 35.3193 22.3174H36.4679C35.7105 24.7941 34.3303 27.0827 32.4732 28.9398Z" fill="#58AEB6"/>
<path d="M16.5086 30.6332C13.1609 29.4382 10.4275 27.03 8.81207 23.852C8.5722 23.3801 8.01615 23.1545 7.51814 23.3275C7.18965 23.4416 6.84899 23.5274 6.50558 23.5827C6.17003 23.6366 5.88771 23.8404 5.73088 24.1417C5.5748 24.4417 5.56998 24.7881 5.71745 25.0918C6.54788 26.8025 7.66109 28.362 9.02597 29.7269C10.9635 31.6644 13.2496 33.0709 15.821 33.9075C16.3785 34.1205 17.2286 33.6582 17.2127 32.8982V31.6321C17.2129 31.1848 16.9298 30.7834 16.5086 30.6332ZM16.0996 32.8271C13.7236 32.0429 11.6089 30.7353 9.81343 28.9397C8.55364 27.6799 7.52349 26.2439 6.7508 24.6704C7.11959 24.6073 7.48512 24.5146 7.83907 24.3944C9.58076 27.7975 12.5119 30.3787 16.0996 31.6692V32.8271Z" fill="#58AEB6"/>
<path d="M20.2729 4.70435H22.2012C22.9665 4.70435 23.5892 4.08173 23.5892 3.31639V1.38796C23.5892 0.622621 22.9665 0 22.2012 0H20.2729C19.5075 0 18.8849 0.622621 18.8849 1.38796V3.31632C18.8849 4.08173 19.5076 4.70435 20.2729 4.70435ZM19.9982 1.38796C19.9982 1.23648 20.1214 1.11328 20.2729 1.11328H22.2012C22.3527 1.11328 22.4759 1.23648 22.4759 1.38796V3.31632C22.4759 3.4678 22.3527 3.591 22.2012 3.591H20.2729C20.1214 3.591 19.9982 3.4678 19.9982 3.31632V1.38796Z" fill="#58AEB6"/>
<path d="M22.2012 30.5146H20.2729C19.5075 30.5146 18.8849 31.1373 18.8849 31.9026V33.831C18.8849 34.5963 19.5076 35.2189 20.2729 35.2189H22.2012C22.9665 35.2189 23.5892 34.5963 23.5892 33.831V31.9026C23.5892 31.1373 22.9665 30.5146 22.2012 30.5146ZM22.4759 33.831C22.4759 33.9825 22.3527 34.1057 22.2012 34.1057H20.2729C20.1214 34.1057 19.9982 33.9825 19.9982 33.831V31.9027C19.9982 31.7512 20.1214 31.628 20.2729 31.628H22.2012C22.3527 31.628 22.4759 31.7512 22.4759 31.9027V33.831Z" fill="#58AEB6"/>
<path d="M37.112 14.7979H35.1836C34.4183 14.7979 33.7957 15.4205 33.7957 16.1859V18.1142C33.7957 18.8796 34.4183 19.5023 35.1836 19.5023H37.112C37.8773 19.5023 38.4999 18.8796 38.4999 18.1142V16.1859C38.4999 15.4205 37.8772 14.7979 37.112 14.7979ZM37.3867 18.1142C37.3867 18.2656 37.2635 18.3889 37.112 18.3889H35.1836C35.0321 18.3889 34.9089 18.2656 34.9089 18.1142V16.1858C34.9089 16.0343 35.0321 15.9111 35.1836 15.9111H37.112C37.2635 15.9111 37.3867 16.0343 37.3867 16.1858V18.1142Z" fill="#58AEB6"/>
<path d="M3.7079 17.2717C3.49044 17.4891 3.49044 17.8414 3.70783 18.0588L4.62881 18.9799C4.73324 19.0843 4.87477 19.1429 5.02247 19.1429C5.17016 19.1429 5.31162 19.0843 5.41612 18.9799L7.36964 17.0264C7.58702 16.809 7.58702 16.4565 7.36964 16.2392C7.15217 16.0218 6.79978 16.0218 6.5824 16.2392L5.02247 17.7991L4.49514 17.2717C4.27768 17.0543 3.92522 17.0542 3.7079 17.2717Z" fill="#58AEB6"/>
<path d="M10.5773 17.6102C10.5773 15.3805 9.0831 13.3902 6.9436 12.7702C6.64858 12.6847 6.33953 12.8546 6.25403 13.1499C6.16846 13.4452 6.33842 13.7539 6.63366 13.8395C8.30017 14.3225 9.46407 15.8731 9.46407 17.6103C9.46407 19.7748 7.70308 21.5357 5.53864 21.5357C3.3742 21.5357 1.61328 19.7747 1.61328 17.6102C1.61328 15.8815 2.72107 14.3751 4.36991 13.8616C4.66337 13.7702 4.82725 13.4581 4.73589 13.1646C4.64445 12.8711 4.3328 12.7069 4.03882 12.7986C1.92211 13.4578 0.5 15.3914 0.5 17.6102C0.5 20.3886 2.76033 22.6489 5.53871 22.6489C8.31709 22.6489 10.5773 20.3886 10.5773 17.6102Z" fill="#58AEB6"/>
<path d="M11.3582 2.90889H15.5923L14.8133 3.68789C14.5959 3.90528 14.5959 4.25774 14.8133 4.47506C14.922 4.58371 15.0645 4.63811 15.2069 4.63811C15.3493 4.63811 15.4918 4.58379 15.6006 4.47506L17.3298 2.74583C17.5199 2.56103 17.5689 2.1929 17.3298 1.95867L15.6006 0.229446C15.3831 0.0120596 15.0307 0.0120596 14.8133 0.229446C14.5959 0.446833 14.5959 0.799298 14.8133 1.01661L15.5923 1.79561H11.3582C11.0507 1.79561 10.8015 2.04484 10.8015 2.35225C10.8015 2.65967 11.0507 2.90889 11.3582 2.90889Z" fill="#58AEB6"/>
</svg>
